<svg width="400" height="300" viewBox="0 0 400 300" fill="none" xmlns="http://www.w3.org/2000/svg">
  <!-- Background -->
  <rect width="400" height="300" fill="#E8F5E8"/>
  
  <!-- Sky gradient -->
  <rect width="400" height="150" fill="url(#skyGradient)"/>
  
  <!-- Enhanced Clouds -->
  <ellipse cx="60" cy="40" rx="20" ry="12" fill="#FFFFFF" opacity="0.7"/>
  <ellipse cx="75" cy="38" rx="18" ry="10" fill="#FFFFFF" opacity="0.7"/>
  <ellipse cx="48" cy="42" rx="15" ry="9" fill="#FFFFFF" opacity="0.7"/>
  
  <ellipse cx="280" cy="55" rx="25" ry="14" fill="#FFFFFF" opacity="0.6"/>
  <ellipse cx="298" cy="52" rx="20" ry="11" fill="#FFFFFF" opacity="0.6"/>
  <ellipse cx="265" cy="58" rx="18" ry="10" fill="#FFFFFF" opacity="0.6"/>
  
  <!-- Ground with texture -->
  <rect x="0" y="150" width="400" height="150" fill="#90EE90"/>
  <rect x="0" y="150" width="400" height="150" fill="url(#grassTexture)" opacity="0.3"/>
  
  <!-- Light tree shadows -->
  <ellipse cx="85" cy="280" rx="40" ry="6" fill="#000000" opacity="0.1"/>
  <ellipse cx="125" cy="280" rx="35" ry="5" fill="#000000" opacity="0.1"/>
  <ellipse cx="165" cy="280" rx="45" ry="7" fill="#000000" opacity="0.1"/>
  <ellipse cx="205" cy="280" rx="40" ry="6" fill="#000000" opacity="0.1"/>
  <ellipse cx="245" cy="280" rx="35" ry="5" fill="#000000" opacity="0.1"/>
  <ellipse cx="285" cy="280" rx="40" ry="6" fill="#000000" opacity="0.1"/>
  <ellipse cx="325" cy="280" rx="45" ry="7" fill="#000000" opacity="0.1"/>
  
  <!-- Bright, vibrant trees with layered foliage -->
  <ellipse cx="80" cy="200" rx="40" ry="60" fill="#228B22"/>
  <ellipse cx="80" cy="200" rx="35" ry="55" fill="#32CD32"/>
  <ellipse cx="80" cy="200" rx="30" ry="50" fill="#3CB371"/>
  <ellipse cx="80" cy="200" rx="25" ry="45" fill="#90EE90"/>
  <ellipse cx="80" cy="200" rx="20" ry="40" fill="#98FB98"/>
  
  <ellipse cx="120" cy="180" rx="35" ry="55" fill="#228B22"/>
  <ellipse cx="120" cy="180" rx="30" ry="50" fill="#32CD32"/>
  <ellipse cx="120" cy="180" rx="25" ry="45" fill="#3CB371"/>
  <ellipse cx="120" cy="180" rx="20" ry="40" fill="#90EE90"/>
  <ellipse cx="120" cy="180" rx="15" ry="35" fill="#98FB98"/>
  
  <ellipse cx="160" cy="200" rx="45" ry="65" fill="#228B22"/>
  <ellipse cx="160" cy="200" rx="40" ry="60" fill="#32CD32"/>
  <ellipse cx="160" cy="200" rx="35" ry="55" fill="#3CB371"/>
  <ellipse cx="160" cy="200" rx="30" ry="50" fill="#90EE90"/>
  <ellipse cx="160" cy="200" rx="25" ry="45" fill="#98FB98"/>
  
  <ellipse cx="200" cy="190" rx="40" ry="60" fill="#228B22"/>
  <ellipse cx="200" cy="190" rx="35" ry="55" fill="#32CD32"/>
  <ellipse cx="200" cy="190" rx="30" ry="50" fill="#3CB371"/>
  <ellipse cx="200" cy="190" rx="25" ry="45" fill="#90EE90"/>
  <ellipse cx="200" cy="190" rx="20" ry="40" fill="#98FB98"/>
  
  <ellipse cx="240" cy="200" rx="35" ry="55" fill="#228B22"/>
  <ellipse cx="240" cy="200" rx="30" ry="50" fill="#32CD32"/>
  <ellipse cx="240" cy="200" rx="25" ry="45" fill="#3CB371"/>
  <ellipse cx="240" cy="200" rx="20" ry="40" fill="#90EE90"/>
  <ellipse cx="240" cy="200" rx="15" ry="35" fill="#98FB98"/>
  
  <ellipse cx="280" cy="180" rx="40" ry="60" fill="#228B22"/>
  <ellipse cx="280" cy="180" rx="35" ry="55" fill="#32CD32"/>
  <ellipse cx="280" cy="180" rx="30" ry="50" fill="#3CB371"/>
  <ellipse cx="280" cy="180" rx="25" ry="45" fill="#90EE90"/>
  <ellipse cx="280" cy="180" rx="20" ry="40" fill="#98FB98"/>
  
  <ellipse cx="320" cy="200" rx="45" ry="65" fill="#228B22"/>
  <ellipse cx="320" cy="200" rx="40" ry="60" fill="#32CD32"/>
  <ellipse cx="320" cy="200" rx="35" ry="55" fill="#3CB371"/>
  <ellipse cx="320" cy="200" rx="30" ry="50" fill="#90EE90"/>
  <ellipse cx="320" cy="200" rx="25" ry="45" fill="#98FB98"/>
  
  <!-- Enhanced tree trunks with texture -->
  <rect x="75" y="220" width="10" height="80" fill="#8B4513"/>
  <rect x="75" y="220" width="10" height="80" fill="url(#woodTexture)" opacity="0.3"/>
  <rect x="76" y="220" width="3" height="80" fill="#A0522D"/>
  <rect x="80" y="220" width="3" height="80" fill="#A0522D"/>
  
  <rect x="115" y="200" width="10" height="80" fill="#8B4513"/>
  <rect x="115" y="200" width="10" height="80" fill="url(#woodTexture)" opacity="0.3"/>
  <rect x="116" y="200" width="3" height="80" fill="#A0522D"/>
  <rect x="120" y="200" width="3" height="80" fill="#A0522D"/>
  
  <rect x="155" y="220" width="10" height="80" fill="#8B4513"/>
  <rect x="155" y="220" width="10" height="80" fill="url(#woodTexture)" opacity="0.3"/>
  <rect x="156" y="220" width="3" height="80" fill="#A0522D"/>
  <rect x="160" y="220" width="3" height="80" fill="#A0522D"/>
  
  <rect x="195" y="210" width="10" height="80" fill="#8B4513"/>
  <rect x="195" y="210" width="10" height="80" fill="url(#woodTexture)" opacity="0.3"/>
  <rect x="196" y="210" width="3" height="80" fill="#A0522D"/>
  <rect x="200" y="210" width="3" height="80" fill="#A0522D"/>
  
  <rect x="235" y="220" width="10" height="80" fill="#8B4513"/>
  <rect x="235" y="220" width="10" height="80" fill="url(#woodTexture)" opacity="0.3"/>
  <rect x="236" y="220" width="3" height="80" fill="#A0522D"/>
  <rect x="240" y="220" width="3" height="80" fill="#A0522D"/>
  
  <rect x="275" y="200" width="10" height="80" fill="#8B4513"/>
  <rect x="275" y="200" width="10" height="80" fill="url(#woodTexture)" opacity="0.3"/>
  <rect x="276" y="200" width="3" height="80" fill="#A0522D"/>
  <rect x="280" y="200" width="3" height="80" fill="#A0522D"/>
  
  <rect x="315" y="220" width="10" height="80" fill="#8B4513"/>
  <rect x="315" y="220" width="10" height="80" fill="url(#woodTexture)" opacity="0.3"/>
  <rect x="316" y="220" width="3" height="80" fill="#A0522D"/>
  <rect x="320" y="220" width="3" height="80" fill="#A0522D"/>
  
  <!-- Ground with texture -->
  <rect x="0" y="280" width="400" height="20" fill="#8FBC8F"/>
  <rect x="0" y="280" width="400" height="20" fill="url(#groundTexture)" opacity="0.3"/>
  
  <!-- Small plants along ground -->
  <ellipse cx="50" cy="275" rx="4" ry="6" fill="#228B22"/>
  <ellipse cx="90" cy="275" rx="4" ry="6" fill="#32CD32"/>
  <ellipse cx="130" cy="275" rx="4" ry="6" fill="#228B22"/>
  <ellipse cx="170" cy="275" rx="4" ry="6" fill="#32CD32"/>
  <ellipse cx="210" cy="275" rx="4" ry="6" fill="#228B22"/>
  <ellipse cx="250" cy="275" rx="4" ry="6" fill="#32CD32"/>
  <ellipse cx="290" cy="275" rx="4" ry="6" fill="#228B22"/>
  <ellipse cx="330" cy="275" rx="4" ry="6" fill="#32CD32"/>
  <ellipse cx="370" cy="275" rx="4" ry="6" fill="#228B22"/>
  
  <!-- Light animal shadows -->
  <ellipse cx="185" cy="270" rx="25" ry="6" fill="#000000" opacity="0.1"/>
  <ellipse cx="255" cy="270" rx="20" ry="5" fill="#000000" opacity="0.1"/>
  
  <!-- Enhanced Tiger -->
  <ellipse cx="180" cy="250" rx="25" ry="15" fill="#FF8C00"/>
  <ellipse cx="180" cy="250" rx="20" ry="12" fill="#FFA500"/>
  <ellipse cx="180" cy="250" rx="15" ry="10" fill="#FFD700"/>
  <ellipse cx="175" cy="245" rx="8" ry="6" fill="#FF8C00"/>
  <ellipse cx="185" cy="245" rx="8" ry="6" fill="#FF8C00"/>
  <circle cx="173" cy="243" r="2" fill="#000"/>
  <circle cx="187" cy="243" r="2" fill="#000"/>
  <ellipse cx="180" cy="248" rx="3" ry="2" fill="#000"/>
  <!-- Tiger stripes -->
  <line x1="170" y1="250" x2="190" y2="250" stroke="#000" stroke-width="1"/>
  <line x1="175" y1="255" x2="185" y2="255" stroke="#000" stroke-width="1"/>
  
  <!-- Enhanced Deer -->
  <ellipse cx="250" cy="260" rx="20" ry="12" fill="#DEB887"/>
  <ellipse cx="250" cy="260" rx="15" ry="10" fill="#F4A460"/>
  <ellipse cx="250" cy="260" rx="10" ry="8" fill="#F5DEB3"/>
  <ellipse cx="245" cy="255" rx="6" ry="4" fill="#DEB887"/>
  <ellipse cx="255" cy="255" rx="6" ry="4" fill="#DEB887"/>
  <circle cx="243" cy="253" r="1.5" fill="#000"/>
  <circle cx="257" cy="253" r="1.5" fill="#000"/>
  <ellipse cx="250" cy="258" rx="2" ry="1" fill="#000"/>
  <!-- Deer spots -->
  <circle cx="248" cy="262" r="1" fill="#8B4513"/>
  <circle cx="252" cy="262" r="1" fill="#8B4513"/>
  
  <!-- Enhanced Birds with V-shapes -->
  <path d="M 95 120 Q 100 118 105 120" stroke="#4A4A4A" stroke-width="1.5" fill="none"/>
  <path d="M 100 122 L 100 118" stroke="#4A4A4A" stroke-width="1" fill="none"/>
  
  <path d="M 295 100 Q 300 98 305 100" stroke="#4A4A4A" stroke-width="1.5" fill="none"/>
  <path d="M 300 102 L 300 98" stroke="#4A4A4A" stroke-width="1" fill="none"/>
  
  <path d="M 145 80 Q 150 78 155 80" stroke="#4A4A4A" stroke-width="1.5" fill="none"/>
  <path d="M 150 82 L 150 78" stroke="#4A4A4A" stroke-width="1" fill="none"/>
  
  <path d="M 220 90 Q 225 88 230 90" stroke="#4A4A4A" stroke-width="1.5" fill="none"/>
  <path d="M 225 92 L 225 88" stroke="#4A4A4A" stroke-width="1" fill="none"/>
  
  <!-- Enhanced Sun with rays -->
  <circle cx="350" cy="50" r="25" fill="#FFD700"/>
  <circle cx="350" cy="50" r="20" fill="#FFFF00"/>
  <circle cx="350" cy="50" r="15" fill="#FFD700"/>
  <line x1="350" y1="20" x2="350" y2="25" stroke="#FFD700" stroke-width="2"/>
  <line x1="350" y1="75" x2="350" y2="80" stroke="#FFD700" stroke-width="2"/>
  <line x1="320" y1="50" x2="325" y2="50" stroke="#FFD700" stroke-width="2"/>
  <line x1="375" y1="50" x2="380" y2="50" stroke="#FFD700" stroke-width="2"/>
  <line x1="332" y1="32" x2="336" y2="36" stroke="#FFD700" stroke-width="2"/>
  <line x1="364" y1="64" x2="368" y2="68" stroke="#FFD700" stroke-width="2"/>
  <line x1="364" y1="36" x2="368" y2="32" stroke="#FFD700" stroke-width="2"/>
  <line x1="332" y1="68" x2="336" y2="64" stroke="#FFD700" stroke-width="2"/>
  
  <!-- Gradients and Patterns -->
  <defs>
    <linearGradient id="skyGradient" x1="0%" y1="0%" x2="0%" y2="100%">
      <stop offset="0%" style="stop-color:#87CEEB;stop-opacity:1" />
      <stop offset="100%" style="stop-color:#E8F5E8;stop-opacity:1" />
    </linearGradient>
    
    <pattern id="grassTexture" x="0" y="0" width="20" height="20" patternUnits="userSpaceOnUse">
      <line x1="0" y1="5" x2="5" y2="0" stroke="#70D070" stroke-width="0.5"/>
      <line x1="10" y1="15" x2="15" y2="10" stroke="#70D070" stroke-width="0.5"/>
      <line x1="5" y1="20" x2="10" y2="15" stroke="#70D070" stroke-width="0.5"/>
    </pattern>
    
    <pattern id="groundTexture" x="0" y="0" width="10" height="10" patternUnits="userSpaceOnUse">
      <circle cx="2" cy="2" r="0.5" fill="#8FBC8F"/>
      <circle cx="7" cy="7" r="0.5" fill="#8FBC8F"/>
    </pattern>
    
    <pattern id="woodTexture" x="0" y="0" width="8" height="8" patternUnits="userSpaceOnUse">
      <line x1="0" y1="2" x2="8" y2="2" stroke="#A0522D" stroke-width="0.3"/>
      <line x1="0" y1="6" x2="8" y2="6" stroke="#A0522D" stroke-width="0.3"/>
    </pattern>
  </defs>
</svg>
