<svg width="400" height="300" viewBox="0 0 400 300" fill="none" xmlns="http://www.w3.org/2000/svg">
  <!-- Background -->
  <rect width="400" height="300" fill="#1B4332"/>
  
  <!-- Trees -->
  <ellipse cx="80" cy="200" rx="40" ry="60" fill="#2D5016"/>
  <ellipse cx="120" cy="180" rx="35" ry="55" fill="#2D5016"/>
  <ellipse cx="160" cy="200" rx="45" ry="65" fill="#2D5016"/>
  <ellipse cx="200" cy="190" rx="40" ry="60" fill="#2D5016"/>
  <ellipse cx="240" cy="200" rx="35" ry="55" fill="#2D5016"/>
  <ellipse cx="280" cy="180" rx="40" ry="60" fill="#2D5016"/>
  <ellipse cx="320" cy="200" rx="45" ry="65" fill="#2D5016"/>
  
  <!-- Tree trunks -->
  <rect x="75" y="220" width="10" height="80" fill="#8B4513"/>
  <rect x="115" y="200" width="10" height="80" fill="#8B4513"/>
  <rect x="155" y="220" width="10" height="80" fill="#8B4513"/>
  <rect x="195" y="210" width="10" height="80" fill="#8B4513"/>
  <rect x="235" y="220" width="10" height="80" fill="#8B4513"/>
  <rect x="275" y="200" width="10" height="80" fill="#8B4513"/>
  <rect x="315" y="220" width="10" height="80" fill="#8B4513"/>
  
  <!-- Ground -->
  <rect x="0" y="280" width="400" height="20" fill="#654321"/>
  
  <!-- Tiger -->
  <ellipse cx="180" cy="250" rx="25" ry="15" fill="#FF8C00"/>
  <ellipse cx="180" cy="250" rx="20" ry="12" fill="#FFA500"/>
  <ellipse cx="175" cy="245" rx="8" ry="6" fill="#FF8C00"/>
  <ellipse cx="185" cy="245" rx="8" ry="6" fill="#FF8C00"/>
  <circle cx="173" cy="243" r="2" fill="#000"/>
  <circle cx="187" cy="243" r="2" fill="#000"/>
  <ellipse cx="180" cy="248" rx="3" ry="2" fill="#000"/>
  
  <!-- Deer -->
  <ellipse cx="250" cy="260" rx="20" ry="12" fill="#DEB887"/>
  <ellipse cx="250" cy="260" rx="15" ry="10" fill="#F4A460"/>
  <ellipse cx="245" cy="255" rx="6" ry="4" fill="#DEB887"/>
  <ellipse cx="255" cy="255" rx="6" ry="4" fill="#DEB887"/>
  <circle cx="243" cy="253" r="1.5" fill="#000"/>
  <circle cx="257" cy="253" r="1.5" fill="#000"/>
  <ellipse cx="250" cy="258" rx="2" ry="1" fill="#000"/>
  
  <!-- Birds -->
  <ellipse cx="100" cy="120" rx="8" ry="5" fill="#87CEEB"/>
  <ellipse cx="300" cy="100" rx="8" ry="5" fill="#87CEEB"/>
  <ellipse cx="150" cy="80" rx="8" ry="5" fill="#87CEEB"/>
  
  <!-- Sun -->
  <circle cx="350" cy="50" r="25" fill="#FFD700"/>
  <circle cx="350" cy="50" r="20" fill="#FFFF00"/>
</svg>
