<svg width="400" height="300" viewBox="0 0 400 300" fill="none" xmlns="http://www.w3.org/2000/svg">
  <!-- Background -->
  <rect width="400" height="300" fill="#E8F5E8"/>
  
  <!-- Sky gradient -->
  <rect width="400" height="150" fill="url(#skyGradient)"/>
  
  <!-- Clouds -->
  <ellipse cx="60" cy="40" rx="20" ry="12" fill="#FFFFFF" opacity="0.7"/>
  <ellipse cx="75" cy="38" rx="18" ry="10" fill="#FFFFFF" opacity="0.7"/>
  <ellipse cx="48" cy="42" rx="15" ry="9" fill="#FFFFFF" opacity="0.7"/>
  
  <ellipse cx="280" cy="55" rx="25" ry="14" fill="#FFFFFF" opacity="0.6"/>
  <ellipse cx="298" cy="52" rx="20" ry="11" fill="#FFFFFF" opacity="0.6"/>
  <ellipse cx="265" cy="58" rx="18" ry="10" fill="#FFFFFF" opacity="0.6"/>
  
  <!-- Ground with texture -->
  <rect x="0" y="150" width="400" height="150" fill="#90EE90"/>
  <rect x="0" y="150" width="400" height="150" fill="url(#grassTexture)" opacity="0.3"/>
  
  <!-- Garden border hedge -->
  <rect x="0" y="250" width="400" height="12" fill="#2F5233"/>
  <rect x="0" y="250" width="400" height="8" fill="#3A6B3F"/>
  
  <!-- Side flower beds -->
  <ellipse cx="30" cy="235" rx="18" ry="12" fill="#FF6B9D"/>
  <ellipse cx="370" cy="235" rx="18" ry="12" fill="#FF6B9D"/>
  
  <!-- Main fountain with shadow -->
  <ellipse cx="200" cy="225" rx="42" ry="8" fill="#000000" opacity="0.2"/>
  
  <circle cx="200" cy="180" r="40" fill="#87CEEB"/>
  <circle cx="200" cy="180" r="30" fill="#B0E0E6"/>
  <circle cx="200" cy="180" r="20" fill="#E0F6FF"/>
  <circle cx="200" cy="180" r="12" fill="#FFFFFF" opacity="0.6"/>
  
  <!-- Fountain water jets -->
  <ellipse cx="200" cy="140" rx="15" ry="8" fill="#87CEEB" opacity="0.8"/>
  <ellipse cx="200" cy="130" rx="10" ry="5" fill="#87CEEB" opacity="0.7"/>
  <ellipse cx="200" cy="120" rx="5" ry="3" fill="#87CEEB" opacity="0.6"/>
  <ellipse cx="200" cy="115" rx="3" ry="2" fill="#FFFFFF" opacity="0.8"/>
  
  <!-- Water droplets -->
  <circle cx="185" cy="145" r="2" fill="#87CEEB" opacity="0.7"/>
  <circle cx="215" cy="148" r="2" fill="#87CEEB" opacity="0.7"/>
  <circle cx="190" cy="135" r="1.5" fill="#B0E0E6" opacity="0.6"/>
  <circle cx="210" cy="138" r="1.5" fill="#B0E0E6" opacity="0.6"/>
  
  <!-- Fountain base with detail -->
  <rect x="180" y="200" width="40" height="20" fill="#4682B4"/>
  <rect x="180" y="200" width="40" height="3" fill="#5A9BD4"/>
  <rect x="180" y="217" width="40" height="3" fill="#36648B"/>
  <rect x="190" y="220" width="20" height="30" fill="#4682B4"/>
  <rect x="190" y="220" width="20" height="3" fill="#5A9BD4"/>
  
  <!-- Decorative patterns on fountain -->
  <line x1="185" y1="205" x2="195" y2="205" stroke="#5A9BD4" stroke-width="1"/>
  <line x1="205" y1="205" x2="215" y2="205" stroke="#5A9BD4" stroke-width="1"/>
  <line x1="185" y1="212" x2="195" y2="212" stroke="#5A9BD4" stroke-width="1"/>
  <line x1="205" y1="212" x2="215" y2="212" stroke="#5A9BD4" stroke-width="1"/>
  
  <!-- Flower beds with individual flowers -->
  <!-- Pink bed left -->
  <ellipse cx="100" cy="220" rx="25" ry="15" fill="#FF69B4"/>
  <ellipse cx="100" cy="220" rx="20" ry="12" fill="#FF1493"/>
  <ellipse cx="100" cy="220" rx="15" ry="10" fill="#FFB6C1"/>
  <circle cx="95" cy="215" r="3" fill="#FF1493"/>
  <circle cx="105" cy="218" r="3" fill="#FF69B4"/>
  <circle cx="100" cy="223" r="3" fill="#FFB6C1"/>
  <circle cx="92" cy="222" r="2.5" fill="#FF1493"/>
  <circle cx="108" cy="224" r="2.5" fill="#FF69B4"/>
  
  <!-- Yellow bed right -->
  <ellipse cx="300" cy="220" rx="25" ry="15" fill="#FFD700"/>
  <ellipse cx="300" cy="220" rx="20" ry="12" fill="#FFA500"/>
  <ellipse cx="300" cy="220" rx="15" ry="10" fill="#FFFFE0"/>
  <circle cx="295" cy="216" r="3" fill="#FFA500"/>
  <circle cx="305" cy="219" r="3" fill="#FFD700"/>
  <circle cx="300" cy="224" r="3" fill="#FFFFE0"/>
  <circle cx="293" cy="223" r="2.5" fill="#FFA500"/>
  <circle cx="307" cy="222" r="2.5" fill="#FFD700"/>
  
  <!-- Green bed -->
  <ellipse cx="150" cy="240" rx="20" ry="12" fill="#32CD32"/>
  <ellipse cx="150" cy="240" rx="15" ry="10" fill="#228B22"/>
  <ellipse cx="150" cy="240" rx="10" ry="8" fill="#90EE90"/>
  <circle cx="145" cy="237" r="2.5" fill="#228B22"/>
  <circle cx="155" cy="239" r="2.5" fill="#32CD32"/>
  <circle cx="150" cy="243" r="2.5" fill="#90EE90"/>
  
  <!-- Purple bed -->
  <ellipse cx="250" cy="240" rx="20" ry="12" fill="#9370DB"/>
  <ellipse cx="250" cy="240" rx="15" ry="10" fill="#8A2BE2"/>
  <ellipse cx="250" cy="240" rx="10" ry="8" fill="#DDA0DD"/>
  <circle cx="245" cy="238" r="2.5" fill="#8A2BE2"/>
  <circle cx="255" cy="240" r="2.5" fill="#9370DB"/>
  <circle cx="250" cy="244" r="2.5" fill="#DDA0DD"/>
  
  <!-- Trees with more detail -->
  <!-- Left tree -->
  <ellipse cx="50" cy="200" rx="30" ry="40" fill="#228B22"/>
  <ellipse cx="45" cy="195" rx="20" ry="28" fill="#32CD32"/>
  <ellipse cx="55" cy="205" rx="22" ry="30" fill="#2E8B2E"/>
  <ellipse cx="50" cy="190" rx="15" ry="20" fill="#3CB371"/>
  <rect x="45" y="220" width="10" height="60" fill="#8B4513"/>
  <rect x="46" y="220" width="3" height="60" fill="#A0522D"/>
  <ellipse cx="50" cy="280" rx="8" ry="3" fill="#000000" opacity="0.3"/>
  
  <!-- Right tree -->
  <ellipse cx="350" cy="200" rx="30" ry="40" fill="#228B22"/>
  <ellipse cx="345" cy="195" rx="20" ry="28" fill="#32CD32"/>
  <ellipse cx="355" cy="205" rx="22" ry="30" fill="#2E8B2E"/>
  <ellipse cx="350" cy="190" rx="15" ry="20" fill="#3CB371"/>
  <rect x="345" y="220" width="10" height="60" fill="#8B4513"/>
  <rect x="346" y="220" width="3" height="60" fill="#A0522D"/>
  <ellipse cx="350" cy="280" rx="8" ry="3" fill="#000000" opacity="0.3"/>
  
  <!-- Small fountains with detail -->
  <!-- Left small fountain -->
  <ellipse cx="120" cy="215" rx="16" ry="4" fill="#000000" opacity="0.2"/>
  <circle cx="120" cy="190" r="15" fill="#87CEEB"/>
  <circle cx="120" cy="190" r="10" fill="#B0E0E6"/>
  <circle cx="120" cy="190" r="6" fill="#E0F6FF"/>
  <ellipse cx="120" cy="175" rx="6" ry="3" fill="#87CEEB" opacity="0.7"/>
  <ellipse cx="120" cy="170" rx="4" ry="2" fill="#B0E0E6" opacity="0.6"/>
  <rect x="115" y="200" width="10" height="15" fill="#4682B4"/>
  <rect x="115" y="200" width="10" height="2" fill="#5A9BD4"/>
  
  <!-- Right small fountain -->
  <ellipse cx="280" cy="215" rx="16" ry="4" fill="#000000" opacity="0.2"/>
  <circle cx="280" cy="190" r="15" fill="#87CEEB"/>
  <circle cx="280" cy="190" r="10" fill="#B0E0E6"/>
  <circle cx="280" cy="190" r="6" fill="#E0F6FF"/>
  <ellipse cx="280" cy="175" rx="6" ry="3" fill="#87CEEB" opacity="0.7"/>
  <ellipse cx="280" cy="170" rx="4" ry="2" fill="#B0E0E6" opacity="0.6"/>
  <rect x="275" y="200" width="10" height="15" fill="#4682B4"/>
  <rect x="275" y="200" width="10" height="2" fill="#5A9BD4"/>
  
  <!-- Paths with texture -->
  <rect x="180" y="250" width="40" height="8" fill="#DEB887"/>
  <rect x="180" y="250" width="40" height="8" fill="url(#pathTexture)" opacity="0.3"/>
  <rect x="80" y="250" width="40" height="8" fill="#DEB887"/>
  <rect x="80" y="250" width="40" height="8" fill="url(#pathTexture)" opacity="0.3"/>
  <rect x="280" y="250" width="40" height="8" fill="#DEB887"/>
  <rect x="280" y="250" width="40" height="8" fill="url(#pathTexture)" opacity="0.3"/>
  
  <!-- Small plants along paths -->
  <ellipse cx="170" cy="258" rx="4" ry="6" fill="#228B22"/>
  <ellipse cx="230" cy="258" rx="4" ry="6" fill="#228B22"/>
  <ellipse cx="70" cy="258" rx="4" ry="6" fill="#228B22"/>
  <ellipse cx="330" cy="258" rx="4" ry="6" fill="#228B22"/>
  
  <!-- Birds with more detail -->
  <path d="M 76 80 Q 80 78 84 80" stroke="#4A4A4A" stroke-width="1.5" fill="none"/>
  <path d="M 80 82 L 80 78" stroke="#4A4A4A" stroke-width="1" fill="none"/>
  
  <path d="M 316 70 Q 320 68 324 70" stroke="#4A4A4A" stroke-width="1.5" fill="none"/>
  <path d="M 320 72 L 320 68" stroke="#4A4A4A" stroke-width="1" fill="none"/>
  
  <path d="M 196 60 Q 200 58 204 60" stroke="#4A4A4A" stroke-width="1.5" fill="none"/>
  <path d="M 200 62 L 200 58" stroke="#4A4A4A" stroke-width="1" fill="none"/>
  
  <!-- Sun with rays -->
  <circle cx="350" cy="50" r="20" fill="#FFD700"/>
  <circle cx="350" cy="50" r="15" fill="#FFFF00"/>
  <line x1="350" y1="25" x2="350" y2="30" stroke="#FFD700" stroke-width="2"/>
  <line x1="350" y1="70" x2="350" y2="75" stroke="#FFD700" stroke-width="2"/>
  <line x1="325" y1="50" x2="330" y2="50" stroke="#FFD700" stroke-width="2"/>
  <line x1="370" y1="50" x2="375" y2="50" stroke="#FFD700" stroke-width="2"/>
  <line x1="332" y1="32" x2="336" y2="36" stroke="#FFD700" stroke-width="2"/>
  <line x1="364" y1="64" x2="368" y2="68" stroke="#FFD700" stroke-width="2"/>
  <line x1="364" y1="36" x2="368" y2="32" stroke="#FFD700" stroke-width="2"/>
  <line x1="332" y1="68" x2="336" y2="64" stroke="#FFD700" stroke-width="2"/>
  
  <!-- Gradients and Patterns -->
  <defs>
    <linearGradient id="skyGradient" x1="0%" y1="0%" x2="0%" y2="100%">
      <stop offset="0%" style="stop-color:#87CEEB;stop-opacity:1" />
      <stop offset="100%" style="stop-color:#E8F5E8;stop-opacity:1" />
    </linearGradient>
    
    <pattern id="grassTexture" x="0" y="0" width="20" height="20" patternUnits="userSpaceOnUse">
      <line x1="0" y1="5" x2="5" y2="0" stroke="#70D070" stroke-width="0.5"/>
      <line x1="10" y1="15" x2="15" y2="10" stroke="#70D070" stroke-width="0.5"/>
      <line x1="5" y1="20" x2="10" y2="15" stroke="#70D070" stroke-width="0.5"/>
    </pattern>
    
    <pattern id="pathTexture" x="0" y="0" width="10" height="10" patternUnits="userSpaceOnUse">
      <circle cx="2" cy="2" r="0.5" fill="#C4A574"/>
      <circle cx="7" cy="7" r="0.5" fill="#C4A574"/>
    </pattern>
  </defs>
</svg>
