<svg width="400" height="300" viewBox="0 0 400 300" fill="none" xmlns="http://www.w3.org/2000/svg">
  <!-- Background -->
  <rect width="400" height="300" fill="#87CEEB"/>
  
  <!-- Hills -->
  <path d="M0 200 Q100 150 200 180 Q300 120 400 200 L400 300 L0 300 Z" fill="#228B22"/>
  <path d="M0 220 Q100 170 200 200 Q300 140 400 220 L400 300 L0 300 Z" fill="#32CD32"/>
  <path d="M0 240 Q100 190 200 220 Q300 160 400 240 L400 300 L0 300 Z" fill="#90EE90"/>
  
  <!-- Temple on hill -->
  <rect x="180" y="120" width="40" height="60" fill="#FFD700"/>
  <rect x="185" y="125" width="30" height="50" fill="#FFA500"/>
  <rect x="190" y="130" width="20" height="40" fill="#FFD700"/>
  
  <!-- Temple tower -->
  <rect x="190" y="80" width="20" height="40" fill="#FFD700"/>
  <rect x="195" y="85" width="10" height="30" fill="#FFA500"/>
  <rect x="197" y="90" width="6" height="20" fill="#FFD700"/>
  
  <!-- Temple entrance -->
  <rect x="195" y="170" width="10" height="10" fill="#8B4513"/>
  
  <!-- Steps -->
  <rect x="175" y="180" width="50" height="5" fill="#DEB887"/>
  <rect x="170" y="185" width="60" height="5" fill="#DEB887"/>
  <rect x="165" y="190" width="70" height="5" fill="#DEB887"/>
  
  <!-- Trees on hills -->
  <ellipse cx="80" cy="210" rx="15" ry="20" fill="#228B22"/>
  <ellipse cx="80" cy="210" rx="12" ry="18" fill="#32CD32"/>
  <rect x="77" y="220" width="6" height="20" fill="#8B4513"/>
  
  <ellipse cx="320" cy="190" rx="15" ry="20" fill="#228B22"/>
  <ellipse cx="320" cy="190" rx="12" ry="18" fill="#32CD32"/>
  <rect x="317" y="200" width="6" height="20" fill="#8B4513"/>
  
  <ellipse cx="150" cy="230" rx="12" ry="18" fill="#228B22"/>
  <ellipse cx="150" cy="230" rx="10" ry="16" fill="#32CD32"/>
  <rect x="147" y="240" width="6" height="20" fill="#8B4513"/>
  
  <ellipse cx="250" cy="220" rx="12" ry="18" fill="#228B22"/>
  <ellipse cx="250" cy="220" rx="10" ry="16" fill="#32CD32"/>
  <rect x="247" y="230" width="6" height="20" fill="#8B4513"/>
  
  <!-- Birds -->
  <ellipse cx="100" cy="100" rx="5" ry="3" fill="#87CEEB"/>
  <ellipse cx="300" cy="80" rx="5" ry="3" fill="#87CEEB"/>
  <ellipse cx="200" cy="60" rx="5" ry="3" fill="#87CEEB"/>
  
  <!-- Sun -->
  <circle cx="350" cy="50" r="20" fill="#FFD700"/>
  <circle cx="350" cy="50" r="15" fill="#FFFF00"/>
  
  <!-- Clouds -->
  <ellipse cx="80" cy="40" rx="20" ry="12" fill="white"/>
  <ellipse cx="100" cy="40" rx="15" ry="10" fill="white"/>
  <ellipse cx="120" cy="40" rx="20" ry="12" fill="white"/>
  
  <ellipse cx="280" cy="30" rx="18" ry="10" fill="white"/>
  <ellipse cx="300" cy="30" rx="15" ry="8" fill="white"/>
  <ellipse cx="320" cy="30" rx="18" ry="10" fill="white"/>
</svg>
