<svg width="400" height="300" viewBox="0 0 400 300" fill="none" xmlns="http://www.w3.org/2000/svg">
  <!-- Background -->
  <rect width="400" height="300" fill="#F0F8FF"/>
  
  <!-- Sky -->
  <rect x="0" y="0" width="400" height="150" fill="#87CEEB"/>
  
  <!-- Ground -->
  <rect x="0" y="150" width="400" height="150" fill="#DEB887"/>
  
  <!-- Market stalls -->
  <rect x="50" y="120" width="60" height="80" fill="#FF6B6B"/>
  <rect x="55" y="125" width="50" height="70" fill="#FF8E8E"/>
  <rect x="60" y="130" width="40" height="60" fill="#FF6B6B"/>
  
  <rect x="130" y="130" width="60" height="80" fill="#4ECDC4"/>
  <rect x="135" y="135" width="50" height="70" fill="#7FDDD3"/>
  <rect x="140" y="140" width="40" height="60" fill="#4ECDC4"/>
  
  <rect x="210" y="125" width="60" height="80" fill="#45B7D1"/>
  <rect x="215" y="130" width="50" height="70" fill="#7BC8E0"/>
  <rect x="220" y="135" width="40" height="60" fill="#45B7D1"/>
  
  <rect x="290" y="120" width="60" height="80" fill="#96CEB4"/>
  <rect x="295" y="125" width="50" height="70" fill="#B8E0C8"/>
  <rect x="300" y="130" width="40" height="60" fill="#96CEB4"/>
  
  <!-- Stall roofs -->
  <rect x="45" y="110" width="70" height="15" fill="#8B4513"/>
  <rect x="125" y="120" width="70" height="15" fill="#8B4513"/>
  <rect x="205" y="115" width="70" height="15" fill="#8B4513"/>
  <rect x="285" y="110" width="70" height="15" fill="#8B4513"/>
  
  <!-- Stall items -->
  <circle cx="80" cy="160" r="8" fill="#FFD700"/>
  <circle cx="160" cy="160" r="8" fill="#FF69B4"/>
  <circle cx="240" cy="160" r="8" fill="#87CEEB"/>
  <circle cx="320" cy="160" r="8" fill="#32CD32"/>
  
  <rect x="75" y="170" width="10" height="15" fill="#8B4513"/>
  <rect x="155" y="170" width="10" height="15" fill="#8B4513"/>
  <rect x="235" y="170" width="10" height="15" fill="#8B4513"/>
  <rect x="315" y="170" width="10" height="15" fill="#8B4513"/>
  
  <!-- People -->
  <ellipse cx="70" cy="250" rx="8" ry="12" fill="#FFB6C1"/>
  <ellipse cx="70" cy="250" rx="6" ry="10" fill="#FFC0CB"/>
  <circle cx="68" cy="245" r="2" fill="#000"/>
  <circle cx="72" cy="245" r="2" fill="#000"/>
  
  <ellipse cx="200" cy="250" rx="8" ry="12" fill="#87CEEB"/>
  <ellipse cx="200" cy="250" rx="6" ry="10" fill="#B0E0E6"/>
  <circle cx="198" cy="245" r="2" fill="#000"/>
  <circle cx="202" cy="245" r="2" fill="#000"/>
  
  <ellipse cx="330" cy="250" rx="8" ry="12" fill="#98FB98"/>
  <ellipse cx="330" cy="250" rx="6" ry="10" fill="#90EE90"/>
  <circle cx="328" cy="245" r="2" fill="#000"/>
  <circle cx="332" cy="245" r="2" fill="#000"/>
  
  <!-- Market entrance -->
  <rect x="180" y="100" width="40" height="20" fill="#8B4513"/>
  <rect x="185" y="105" width="30" height="10" fill="#DEB887"/>
  
  <!-- Sun -->
  <circle cx="350" cy="40" r="20" fill="#FFD700"/>
  <circle cx="350" cy="40" r="15" fill="#FFFF00"/>
  
  <!-- Clouds -->
  <ellipse cx="80" cy="30" rx="15" ry="8" fill="white"/>
  <ellipse cx="95" cy="30" rx="12" ry="6" fill="white"/>
  <ellipse cx="110" cy="30" rx="15" ry="8" fill="white"/>
</svg>
