<svg width="400" height="300" viewBox="0 0 400 300" fill="none" xmlns="http://www.w3.org/2000/svg">
  <!-- Background -->
  <rect width="400" height="300" fill="#F0F8FF"/>
  
  <!-- Sky -->
  <rect x="0" y="0" width="400" height="150" fill="#87CEEB"/>
  
  <!-- Ground -->
  <rect x="0" y="150" width="400" height="150" fill="#90EE90"/>
  
  <!-- Main palace building -->
  <rect x="150" y="100" width="100" height="80" fill="#FFD700"/>
  <rect x="155" y="105" width="90" height="70" fill="#FFA500"/>
  <rect x="160" y="110" width="80" height="60" fill="#FFD700"/>
  
  <!-- Palace roof -->
  <rect x="140" y="80" width="120" height="25" fill="#8B4513"/>
  <rect x="145" y="85" width="110" height="15" fill="#A0522D"/>
  
  <!-- Central tower -->
  <rect x="185" y="50" width="30" height="30" fill="#FFD700"/>
  <rect x="190" y="55" width="20" height="20" fill="#FFA500"/>
  <rect x="195" y="60" width="10" height="10" fill="#FFD700"/>
  
  <!-- Side towers -->
  <rect x="160" y="70" width="20" height="25" fill="#FFD700"/>
  <rect x="165" y="75" width="10" height="15" fill="#FFA500"/>
  
  <rect x="220" y="70" width="20" height="25" fill="#FFD700"/>
  <rect x="225" y="75" width="10" height="15" fill="#FFA500"/>
  
  <!-- Palace entrance -->
  <rect x="185" y="160" width="30" height="20" fill="#8B4513"/>
  <rect x="190" y="165" width="20" height="10" fill="#DEB887"/>
  
  <!-- Windows -->
  <rect x="165" y="125" width="15" height="20" fill="#87CEEB"/>
  <rect x="220" y="125" width="15" height="20" fill="#87CEEB"/>
  <rect x="185" y="125" width="30" height="20" fill="#87CEEB"/>
  
  <!-- Palace grounds -->
  <ellipse cx="100" cy="220" rx="20" ry="15" fill="#FF69B4"/>
  <ellipse cx="100" cy="220" rx="15" ry="12" fill="#FFB6C1"/>
  
  <ellipse cx="300" cy="220" rx="20" ry="15" fill="#32CD32"/>
  <ellipse cx="300" cy="220" rx="15" ry="12" fill="#90EE90"/>
  
  <!-- Trees -->
  <ellipse cx="80" cy="200" rx="15" ry="20" fill="#228B22"/>
  <ellipse cx="80" cy="200" rx="12" ry="18" fill="#32CD32"/>
  <rect x="77" y="210" width="6" height="20" fill="#8B4513"/>
  
  <ellipse cx="320" cy="200" rx="15" ry="20" fill="#228B22"/>
  <ellipse cx="320" cy="200" rx="12" ry="18" fill="#32CD32"/>
  <rect x="317" y="210" width="6" height="20" fill="#8B4513"/>
  
  <!-- Path to palace -->
  <rect x="180" y="200" width="40" height="8" fill="#DEB887"/>
  <rect x="175" y="210" width="50" height="8" fill="#DEB887"/>
  
  <!-- Sun -->
  <circle cx="350" cy="40" r="20" fill="#FFD700"/>
  <circle cx="350" cy="40" r="15" fill="#FFFF00"/>
  
  <!-- Birds -->
  <ellipse cx="100" cy="80" rx="5" ry="3" fill="#87CEEB"/>
  <ellipse cx="300" cy="60" rx="5" ry="3" fill="#87CEEB"/>
  <ellipse cx="200" cy="40" rx="5" ry="3" fill="#87CEEB"/>
</svg>
