<svg width="400" height="300" viewBox="0 0 400 300" fill="none" xmlns="http://www.w3.org/2000/svg">
  <!-- Background -->
  <rect width="400" height="300" fill="#E0F6FF"/>
  
  <!-- Sky -->
  <rect x="0" y="0" width="400" height="150" fill="#87CEEB"/>
  
  <!-- Lake -->
  <ellipse cx="200" cy="200" rx="120" ry="60" fill="#4682B4"/>
  <ellipse cx="200" cy="200" rx="100" ry="50" fill="#5F9EA0"/>
  <ellipse cx="200" cy="200" rx="80" ry="40" fill="#87CEEB"/>
  
  <!-- Lake reflections -->
  <ellipse cx="200" cy="200" rx="60" ry="30" fill="#B0E0E6"/>
  <ellipse cx="200" cy="200" rx="40" ry="20" fill="#E0F6FF"/>
  
  <!-- Lake shore -->
  <ellipse cx="200" cy="200" rx="140" ry="70" fill="#90EE90"/>
  <ellipse cx="200" cy="200" rx="130" ry="65" fill="#98FB98"/>
  
  <!-- Trees around lake -->
  <ellipse cx="100" cy="180" rx="20" ry="25" fill="#228B22"/>
  <ellipse cx="100" cy="180" rx="15" ry="20" fill="#32CD32"/>
  <rect x="97" y="195" width="6" height="25" fill="#8B4513"/>
  
  <ellipse cx="300" cy="180" rx="20" ry="25" fill="#228B22"/>
  <ellipse cx="300" cy="180" rx="15" ry="20" fill="#32CD32"/>
  <rect x="297" y="195" width="6" height="25" fill="#8B4513"/>
  
  <ellipse cx="80" cy="220" rx="18" ry="22" fill="#228B22"/>
  <ellipse cx="80" cy="220" rx="13" ry="18" fill="#32CD32"/>
  <rect x="77" y="235" width="6" height="25" fill="#8B4513"/>
  
  <ellipse cx="320" cy="220" rx="18" ry="22" fill="#228B22"/>
  <ellipse cx="320" cy="220" rx="13" ry="18" fill="#32CD32"/>
  <rect x="317" y="235" width="6" height="25" fill="#8B4513"/>
  
  <!-- Birds on water -->
  <ellipse cx="150" cy="190" rx="8" ry="5" fill="#87CEEB"/>
  <ellipse cx="250" cy="185" rx="8" ry="5" fill="#87CEEB"/>
  <ellipse cx="180" cy="195" rx="8" ry="5" fill="#87CEEB"/>
  
  <!-- Ducks -->
  <ellipse cx="160" cy="210" rx="12" ry="8" fill="#FFD700"/>
  <ellipse cx="160" cy="210" rx="10" ry="6" fill="#FFA500"/>
  <ellipse cx="155" cy="205" rx="5" ry="3" fill="#FFD700"/>
  <ellipse cx="165" cy="205" rx="5" ry="3" fill="#FFD700"/>
  
  <ellipse cx="240" cy="215" rx="12" ry="8" fill="#FFD700"/>
  <ellipse cx="240" cy="215" rx="10" ry="6" fill="#FFA500"/>
  <ellipse cx="235" cy="210" rx="5" ry="3" fill="#FFD700"/>
  <ellipse cx="245" cy="210" rx="5" ry="3" fill="#FFD700"/>
  
  <!-- Lily pads -->
  <ellipse cx="140" cy="220" rx="15" ry="8" fill="#32CD32"/>
  <ellipse cx="260" cy="225" rx="15" ry="8" fill="#32CD32"/>
  <ellipse cx="200" cy="230" rx="15" ry="8" fill="#32CD32"/>
  
  <!-- Sun -->
  <circle cx="350" cy="40" r="20" fill="#FFD700"/>
  <circle cx="350" cy="40" r="15" fill="#FFFF00"/>
  
  <!-- Clouds -->
  <ellipse cx="80" cy="30" rx="15" ry="8" fill="white"/>
  <ellipse cx="95" cy="30" rx="12" ry="6" fill="white"/>
  <ellipse cx="110" cy="30" rx="15" ry="8" fill="white"/>
  
  <ellipse cx="280" cy="20" rx="18" ry="10" fill="white"/>
  <ellipse cx="300" cy="20" rx="15" ry="8" fill="white"/>
  <ellipse cx="320" cy="20" rx="18" ry="10" fill="white"/>
</svg>
