<svg width="400" height="300" viewBox="0 0 400 300" fill="none" xmlns="http://www.w3.org/2000/svg">
  <!-- Background -->
  <rect width="400" height="300" fill="#F0F8FF"/>
  
  <!-- Sky gradient -->
  <rect x="0" y="0" width="400" height="150" fill="url(#skyGradient)"/>
  
  <!-- Enhanced Clouds -->
  <ellipse cx="60" cy="40" rx="20" ry="12" fill="#FFFFFF" opacity="0.7"/>
  <ellipse cx="75" cy="38" rx="18" ry="10" fill="#FFFFFF" opacity="0.7"/>
  <ellipse cx="48" cy="42" rx="15" ry="9" fill="#FFFFFF" opacity="0.7"/>
  
  <ellipse cx="280" cy="55" rx="25" ry="14" fill="#FFFFFF" opacity="0.6"/>
  <ellipse cx="298" cy="52" rx="20" ry="11" fill="#FFFFFF" opacity="0.6"/>
  <ellipse cx="265" cy="58" rx="18" ry="10" fill="#FFFFFF" opacity="0.6"/>
  
  <!-- Ground with texture -->
  <rect x="0" y="150" width="400" height="150" fill="#90EE90"/>
  <rect x="0" y="150" width="400" height="150" fill="url(#grassTexture)" opacity="0.3"/>
  
  <!-- Palace shadow -->
  <ellipse cx="200" cy="190" rx="80" ry="12" fill="#000000" opacity="0.2"/>
  
  <!-- Enhanced Main palace building -->
  <rect x="120" y="80" width="160" height="100" fill="#F5F5DC"/>
  <rect x="125" y="85" width="150" height="90" fill="#F0E68C"/>
  <rect x="130" y="90" width="140" height="80" fill="#F5F5DC"/>
  <!-- Palace highlights -->
  <rect x="122" y="82" width="156" height="2" fill="#FFFFE0"/>
  <rect x="127" y="87" width="146" height="2" fill="#FFFFE0"/>
  
  <!-- Enhanced Palace roof -->
  <rect x="110" y="60" width="180" height="30" fill="#8B4513"/>
  <rect x="110" y="60" width="180" height="30" fill="url(#roofTexture)" opacity="0.3"/>
  <rect x="115" y="65" width="170" height="20" fill="#A0522D"/>
  <rect x="117" y="67" width="166" height="2" fill="#DEB887"/>
  
  <!-- Central dome shadow -->
  <ellipse cx="200" cy="50" rx="30" ry="8" fill="#000000" opacity="0.2"/>
  
  <!-- Enhanced Central dome -->
  <ellipse cx="200" cy="35" rx="30" ry="25" fill="#F5F5DC"/>
  <ellipse cx="200" cy="35" rx="25" ry="20" fill="#F0E68C"/>
  <ellipse cx="200" cy="35" rx="20" ry="15" fill="#F5F5DC"/>
  <ellipse cx="200" cy="35" rx="15" ry="10" fill="#FFFFE0"/>
  
  <!-- Side dome shadows -->
  <ellipse cx="145" cy="60" rx="25" ry="6" fill="#000000" opacity="0.2"/>
  <ellipse cx="255" cy="60" rx="25" ry="6" fill="#000000" opacity="0.2"/>
  
  <!-- Enhanced Side domes -->
  <ellipse cx="140" cy="45" rx="25" ry="20" fill="#F5F5DC"/>
  <ellipse cx="140" cy="45" rx="20" ry="15" fill="#F0E68C"/>
  <ellipse cx="140" cy="45" rx="15" ry="10" fill="#F5F5DC"/>
  
  <ellipse cx="260" cy="45" rx="25" ry="20" fill="#F5F5DC"/>
  <ellipse cx="260" cy="45" rx="20" ry="15" fill="#F0E68C"/>
  <ellipse cx="260" cy="45" rx="15" ry="10" fill="#F5F5DC"/>
  
  <!-- Palace entrance shadow -->
  <ellipse cx="200" cy="185" rx="25" ry="6" fill="#000000" opacity="0.2"/>
  
  <!-- Enhanced Palace entrance -->
  <rect x="175" y="160" width="50" height="20" fill="#8B4513"/>
  <rect x="180" y="165" width="40" height="10" fill="#DEB887"/>
  <rect x="180" y="165" width="40" height="10" fill="url(#woodTexture)" opacity="0.3"/>
  <rect x="182" y="167" width="36" height="2" fill="#A0522D"/>
  
  <!-- Enhanced Palace windows -->
  <rect x="145" y="110" width="20" height="25" fill="#87CEEB"/>
  <rect x="145" y="110" width="20" height="25" fill="url(#windowTexture)" opacity="0.3"/>
  <rect x="147" y="112" width="16" height="21" fill="#B0E0E6"/>
  
  <rect x="200" y="110" width="40" height="25" fill="#87CEEB"/>
  <rect x="200" y="110" width="40" height="25" fill="url(#windowTexture)" opacity="0.3"/>
  <rect x="202" y="112" width="36" height="21" fill="#B0E0E6"/>
  
  <rect x="235" y="110" width="20" height="25" fill="#87CEEB"/>
  <rect x="235" y="110" width="20" height="25" fill="url(#windowTexture)" opacity="0.3"/>
  <rect x="237" y="112" width="16" height="21" fill="#B0E0E6"/>
  
  <!-- Enhanced Palace columns -->
  <rect x="140" y="90" width="8" height="70" fill="#DEB887"/>
  <rect x="140" y="90" width="8" height="70" fill="url(#columnTexture)" opacity="0.3"/>
  <rect x="141" y="90" width="2" height="70" fill="#F5DEB3"/>
  <rect x="145" y="90" width="2" height="70" fill="#F5DEB3"/>
  
  <rect x="252" y="90" width="8" height="70" fill="#DEB887"/>
  <rect x="252" y="90" width="8" height="70" fill="url(#columnTexture)" opacity="0.3"/>
  <rect x="253" y="90" width="2" height="70" fill="#F5DEB3"/>
  <rect x="257" y="90" width="2" height="70" fill="#F5DEB3"/>
  
  <!-- Palace grounds shadows -->
  <ellipse cx="85" cy="240" rx="25" ry="6" fill="#000000" opacity="0.2"/>
  <ellipse cx="315" cy="240" rx="25" ry="6" fill="#000000" opacity="0.2"/>
  
  <!-- Enhanced Palace grounds -->
  <ellipse cx="80" cy="220" rx="25" ry="18" fill="#FF69B4"/>
  <ellipse cx="80" cy="220" rx="20" ry="15" fill="#FFB6C1"/>
  <ellipse cx="80" cy="220" rx="15" ry="12" fill="#FF69B4"/>
  <!-- Individual flowers -->
  <circle cx="75" cy="215" r="2" fill="#FF1493"/>
  <circle cx="85" cy="218" r="2" fill="#FF69B4"/>
  <circle cx="80" cy="223" r="2" fill="#FFB6C1"/>
  
  <ellipse cx="320" cy="220" rx="25" ry="18" fill="#32CD32"/>
  <ellipse cx="320" cy="220" rx="20" ry="15" fill="#90EE90"/>
  <ellipse cx="320" cy="220" rx="15" ry="12" fill="#32CD32"/>
  <!-- Individual flowers -->
  <circle cx="315" cy="216" r="2" fill="#228B22"/>
  <circle cx="325" cy="219" r="2" fill="#32CD32"/>
  <circle cx="320" cy="224" r="2" fill="#90EE90"/>
  
  <!-- Fountain shadows -->
  <ellipse cx="155" cy="220" rx="15" ry="4" fill="#000000" opacity="0.2"/>
  <ellipse cx="245" cy="220" rx="15" ry="4" fill="#000000" opacity="0.2"/>
  
  <!-- Enhanced Fountains -->
  <circle cx="150" cy="200" r="15" fill="#87CEEB"/>
  <circle cx="150" cy="200" r="10" fill="#B0E0E6"/>
  <circle cx="150" cy="200" r="6" fill="#E0F6FF"/>
  <ellipse cx="150" cy="185" rx="6" ry="3" fill="#87CEEB" opacity="0.7"/>
  <ellipse cx="150" cy="180" rx="4" ry="2" fill="#B0E0E6" opacity="0.6"/>
  <rect x="145" y="210" width="10" height="20" fill="#4682B4"/>
  <rect x="145" y="210" width="10" height="2" fill="#5A9BD4"/>
  
  <circle cx="250" cy="200" r="15" fill="#87CEEB"/>
  <circle cx="250" cy="200" r="10" fill="#B0E0E6"/>
  <circle cx="250" cy="200" r="6" fill="#E0F6FF"/>
  <ellipse cx="250" cy="185" rx="6" ry="3" fill="#87CEEB" opacity="0.7"/>
  <ellipse cx="250" cy="180" rx="4" ry="2" fill="#B0E0E6" opacity="0.6"/>
  <rect x="245" y="210" width="10" height="20" fill="#4682B4"/>
  <rect x="245" y="210" width="10" height="2" fill="#5A9BD4"/>
  
  <!-- Tree shadows -->
  <ellipse cx="65" cy="220" rx="18" ry="6" fill="#000000" opacity="0.2"/>
  <ellipse cx="335" cy="220" rx="18" ry="6" fill="#000000" opacity="0.2"/>
  
  <!-- Enhanced Trees -->
  <ellipse cx="60" cy="200" rx="18" ry="22" fill="#228B22"/>
  <ellipse cx="60" cy="200" rx="13" ry="18" fill="#32CD32"/>
  <ellipse cx="60" cy="200" rx="8" ry="14" fill="#3CB371"/>
  <rect x="57" y="210" width="6" height="25" fill="#8B4513"/>
  <rect x="58" y="210" width="2" height="25" fill="#A0522D"/>
  
  <ellipse cx="340" cy="200" rx="18" ry="22" fill="#228B22"/>
  <ellipse cx="340" cy="200" rx="13" ry="18" fill="#32CD32"/>
  <ellipse cx="340" cy="200" rx="8" ry="14" fill="#3CB371"/>
  <rect x="337" y="210" width="6" height="25" fill="#8B4513"/>
  <rect x="338" y="210" width="2" height="25" fill="#A0522D"/>
  
  <!-- Enhanced Path to palace -->
  <rect x="175" y="200" width="50" height="8" fill="#DEB887"/>
  <rect x="175" y="200" width="50" height="8" fill="url(#pathTexture)" opacity="0.3"/>
  <rect x="170" y="210" width="60" height="8" fill="#DEB887"/>
  <rect x="170" y="210" width="60" height="8" fill="url(#pathTexture)" opacity="0.3"/>
  
  <!-- Small plants along path -->
  <ellipse cx="165" cy="218" rx="3" ry="5" fill="#228B22"/>
  <ellipse cx="235" cy="218" rx="3" ry="5" fill="#228B22"/>
  <ellipse cx="190" cy="225" rx="3" ry="5" fill="#228B22"/>
  <ellipse cx="210" cy="225" rx="3" ry="5" fill="#228B22"/>
  
  <!-- Enhanced Sun with rays -->
  <circle cx="350" cy="40" r="20" fill="#FFD700"/>
  <circle cx="350" cy="40" r="15" fill="#FFFF00"/>
  <circle cx="350" cy="40" r="10" fill="#FFD700"/>
  <line x1="350" y1="15" x2="350" y2="20" stroke="#FFD700" stroke-width="2"/>
  <line x1="350" y1="60" x2="350" y2="65" stroke="#FFD700" stroke-width="2"/>
  <line x1="325" y1="40" x2="330" y2="40" stroke="#FFD700" stroke-width="2"/>
  <line x1="370" y1="40" x2="375" y2="40" stroke="#FFD700" stroke-width="2"/>
  <line x1="332" y1="22" x2="336" y2="26" stroke="#FFD700" stroke-width="2"/>
  <line x1="364" y1="54" x2="368" y2="58" stroke="#FFD700" stroke-width="2"/>
  <line x1="364" y1="26" x2="368" y2="22" stroke="#FFD700" stroke-width="2"/>
  <line x1="332" y1="54" x2="336" y2="58" stroke="#FFD700" stroke-width="2"/>
  
  <!-- Enhanced Birds with V-shapes -->
  <path d="M 95 80 Q 100 78 105 80" stroke="#4A4A4A" stroke-width="1.5" fill="none"/>
  <path d="M 100 82 L 100 78" stroke="#4A4A4A" stroke-width="1" fill="none"/>
  
  <path d="M 295 60 Q 300 58 305 60" stroke="#4A4A4A" stroke-width="1.5" fill="none"/>
  <path d="M 300 62 L 300 58" stroke="#4A4A4A" stroke-width="1" fill="none"/>
  
  <path d="M 195 40 Q 200 38 205 40" stroke="#4A4A4A" stroke-width="1.5" fill="none"/>
  <path d="M 200 42 L 200 38" stroke="#4A4A4A" stroke-width="1" fill="none"/>
  
  <!-- Gradients and Patterns -->
  <defs>
    <linearGradient id="skyGradient" x1="0%" y1="0%" x2="0%" y2="100%">
      <stop offset="0%" style="stop-color:#87CEEB;stop-opacity:1" />
      <stop offset="100%" style="stop-color:#F0F8FF;stop-opacity:1" />
    </linearGradient>
    
    <pattern id="grassTexture" x="0" y="0" width="20" height="20" patternUnits="userSpaceOnUse">
      <line x1="0" y1="5" x2="5" y2="0" stroke="#70D070" stroke-width="0.5"/>
      <line x1="10" y1="15" x2="15" y2="10" stroke="#70D070" stroke-width="0.5"/>
      <line x1="5" y1="20" x2="10" y2="15" stroke="#70D070" stroke-width="0.5"/>
    </pattern>
    
    <pattern id="roofTexture" x="0" y="0" width="10" height="10" patternUnits="userSpaceOnUse">
      <line x1="0" y1="5" x2="10" y2="5" stroke="#A0522D" stroke-width="0.5"/>
      <line x1="5" y1="0" x2="5" y2="10" stroke="#A0522D" stroke-width="0.5"/>
    </pattern>
    
    <pattern id="woodTexture" x="0" y="0" width="8" height="8" patternUnits="userSpaceOnUse">
      <line x1="0" y1="2" x2="8" y2="2" stroke="#A0522D" stroke-width="0.3"/>
      <line x1="0" y1="6" x2="8" y2="6" stroke="#A0522D" stroke-width="0.3"/>
    </pattern>
    
    <pattern id="windowTexture" x="0" y="0" width="6" height="6" patternUnits="userSpaceOnUse">
      <line x1="0" y1="3" x2="6" y2="3" stroke="#4682B4" stroke-width="0.3"/>
      <line x1="3" y1="0" x2="3" y2="6" stroke="#4682B4" stroke-width="0.3"/>
    </pattern>
    
    <pattern id="columnTexture" x="0" y="0" width="4" height="4" patternUnits="userSpaceOnUse">
      <line x1="0" y1="2" x2="4" y2="2" stroke="#F5DEB3" stroke-width="0.3"/>
    </pattern>
    
    <pattern id="pathTexture" x="0" y="0" width="10" height="10" patternUnits="userSpaceOnUse">
      <circle cx="2" cy="2" r="0.5" fill="#C4A574"/>
      <circle cx="7" cy="7" r="0.5" fill="#C4A574"/>
    </pattern>
  </defs>
</svg>
