<svg width="400" height="300" viewBox="0 0 400 300" fill="none" xmlns="http://www.w3.org/2000/svg">
  <!-- Background -->
  <rect width="400" height="300" fill="#F0F8FF"/>
  
  <!-- Sky gradient -->
  <rect x="0" y="0" width="400" height="150" fill="url(#skyGradient)"/>
  
  <!-- Enhanced Clouds -->
  <ellipse cx="60" cy="40" rx="20" ry="12" fill="#FFFFFF" opacity="0.7"/>
  <ellipse cx="75" cy="38" rx="18" ry="10" fill="#FFFFFF" opacity="0.7"/>
  <ellipse cx="48" cy="42" rx="15" ry="9" fill="#FFFFFF" opacity="0.7"/>
  
  <ellipse cx="280" cy="55" rx="25" ry="14" fill="#FFFFFF" opacity="0.6"/>
  <ellipse cx="298" cy="52" rx="20" ry="11" fill="#FFFFFF" opacity="0.6"/>
  <ellipse cx="265" cy="58" rx="18" ry="10" fill="#FFFFFF" opacity="0.6"/>
  
  <!-- Ground with texture -->
  <rect x="0" y="150" width="400" height="150" fill="#90EE90"/>
  <rect x="0" y="150" width="400" height="150" fill="url(#grassTexture)" opacity="0.3"/>
  
  <!-- Zoo enclosure shadows -->
  <ellipse cx="90" cy="185" rx="40" ry="8" fill="#000000" opacity="0.2"/>
  <ellipse cx="190" cy="195" rx="40" ry="8" fill="#000000" opacity="0.2"/>
  <ellipse cx="290" cy="190" rx="40" ry="8" fill="#000000" opacity="0.2"/>
  
  <!-- Enhanced Zoo enclosures -->
  <rect x="50" y="120" width="80" height="60" fill="#DEB887"/>
  <rect x="50" y="120" width="80" height="60" fill="url(#concreteTexture)" opacity="0.3"/>
  <rect x="55" y="125" width="70" height="50" fill="#F5DEB3"/>
  <rect x="60" y="130" width="60" height="40" fill="#DEB887"/>
  <!-- Enclosure highlights -->
  <rect x="52" y="122" width="76" height="2" fill="#F5DEB3"/>
  <rect x="57" y="127" width="66" height="2" fill="#FFFFE0"/>
  
  <rect x="150" y="130" width="80" height="60" fill="#DEB887"/>
  <rect x="150" y="130" width="80" height="60" fill="url(#concreteTexture)" opacity="0.3"/>
  <rect x="155" y="135" width="70" height="50" fill="#F5DEB3"/>
  <rect x="160" y="140" width="60" height="40" fill="#DEB887"/>
  <!-- Enclosure highlights -->
  <rect x="152" y="132" width="76" height="2" fill="#F5DEB3"/>
  <rect x="157" y="137" width="66" height="2" fill="#FFFFE0"/>
  
  <rect x="250" y="125" width="80" height="60" fill="#DEB887"/>
  <rect x="250" y="125" width="80" height="60" fill="url(#concreteTexture)" opacity="0.3"/>
  <rect x="255" y="130" width="70" height="50" fill="#F5DEB3"/>
  <rect x="260" y="135" width="60" height="40" fill="#DEB887"/>
  <!-- Enclosure highlights -->
  <rect x="252" y="127" width="76" height="2" fill="#F5DEB3"/>
  <rect x="257" y="132" width="66" height="2" fill="#FFFFE0"/>
  
  <!-- Enhanced Enclosure bars -->
  <rect x="60" y="125" width="2" height="50" fill="#8B4513"/>
  <rect x="60" y="125" width="2" height="50" fill="url(#metalTexture)" opacity="0.3"/>
  <rect x="70" y="125" width="2" height="50" fill="#8B4513"/>
  <rect x="70" y="125" width="2" height="50" fill="url(#metalTexture)" opacity="0.3"/>
  <rect x="80" y="125" width="2" height="50" fill="#8B4513"/>
  <rect x="80" y="125" width="2" height="50" fill="url(#metalTexture)" opacity="0.3"/>
  <rect x="90" y="125" width="2" height="50" fill="#8B4513"/>
  <rect x="90" y="125" width="2" height="50" fill="url(#metalTexture)" opacity="0.3"/>
  <rect x="100" y="125" width="2" height="50" fill="#8B4513"/>
  <rect x="100" y="125" width="2" height="50" fill="url(#metalTexture)" opacity="0.3"/>
  <rect x="110" y="125" width="2" height="50" fill="#8B4513"/>
  <rect x="110" y="125" width="2" height="50" fill="url(#metalTexture)" opacity="0.3"/>
  <rect x="120" y="125" width="2" height="50" fill="#8B4513"/>
  <rect x="120" y="125" width="2" height="50" fill="url(#metalTexture)" opacity="0.3"/>
  
  <rect x="160" y="135" width="2" height="50" fill="#8B4513"/>
  <rect x="160" y="135" width="2" height="50" fill="url(#metalTexture)" opacity="0.3"/>
  <rect x="170" y="135" width="2" height="50" fill="#8B4513"/>
  <rect x="170" y="135" width="2" height="50" fill="url(#metalTexture)" opacity="0.3"/>
  <rect x="180" y="135" width="2" height="50" fill="#8B4513"/>
  <rect x="180" y="135" width="2" height="50" fill="url(#metalTexture)" opacity="0.3"/>
  <rect x="190" y="135" width="2" height="50" fill="#8B4513"/>
  <rect x="190" y="135" width="2" height="50" fill="url(#metalTexture)" opacity="0.3"/>
  <rect x="200" y="135" width="2" height="50" fill="#8B4513"/>
  <rect x="200" y="135" width="2" height="50" fill="url(#metalTexture)" opacity="0.3"/>
  <rect x="210" y="135" width="2" height="50" fill="#8B4513"/>
  <rect x="210" y="135" width="2" height="50" fill="url(#metalTexture)" opacity="0.3"/>
  <rect x="220" y="135" width="2" height="50" fill="#8B4513"/>
  <rect x="220" y="135" width="2" height="50" fill="url(#metalTexture)" opacity="0.3"/>
  
  <rect x="260" y="130" width="2" height="50" fill="#8B4513"/>
  <rect x="260" y="130" width="2" height="50" fill="url(#metalTexture)" opacity="0.3"/>
  <rect x="270" y="130" width="2" height="50" fill="#8B4513"/>
  <rect x="270" y="130" width="2" height="50" fill="url(#metalTexture)" opacity="0.3"/>
  <rect x="280" y="130" width="2" height="50" fill="#8B4513"/>
  <rect x="280" y="130" width="2" height="50" fill="url(#metalTexture)" opacity="0.3"/>
  <rect x="290" y="130" width="2" height="50" fill="#8B4513"/>
  <rect x="290" y="130" width="2" height="50" fill="url(#metalTexture)" opacity="0.3"/>
  <rect x="300" y="130" width="2" height="50" fill="#8B4513"/>
  <rect x="300" y="130" width="2" height="50" fill="url(#metalTexture)" opacity="0.3"/>
  <rect x="310" y="130" width="2" height="50" fill="#8B4513"/>
  <rect x="310" y="130" width="2" height="50" fill="url(#metalTexture)" opacity="0.3"/>
  <rect x="320" y="130" width="2" height="50" fill="#8B4513"/>
  <rect x="320" y="130" width="2" height="50" fill="url(#metalTexture)" opacity="0.3"/>
  
  <!-- Animal shadows -->
  <ellipse cx="90" cy="175" rx="15" ry="5" fill="#000000" opacity="0.2"/>
  <ellipse cx="200" cy="185" rx="20" ry="6" fill="#000000" opacity="0.2"/>
  <ellipse cx="310" cy="165" rx="12" ry="4" fill="#000000" opacity="0.2"/>
  
  <!-- Enhanced Animals -->
  <!-- Lion -->
  <ellipse cx="90" cy="160" rx="15" ry="10" fill="#FFA500"/>
  <ellipse cx="90" cy="160" rx="12" ry="8" fill="#FF8C00"/>
  <ellipse cx="90" cy="160" rx="9" ry="6" fill="#FFA500"/>
  <ellipse cx="85" cy="155" rx="6" ry="4" fill="#FFA500"/>
  <ellipse cx="95" cy="155" rx="6" ry="4" fill="#FFA500"/>
  <circle cx="83" cy="153" r="1.5" fill="#000"/>
  <circle cx="97" cy="153" r="1.5" fill="#000"/>
  <!-- Lion details -->
  <ellipse cx="88" cy="158" rx="3" ry="2" fill="#FF8C00"/>
  <ellipse cx="92" cy="158" rx="3" ry="2" fill="#FF8C00"/>
  
  <!-- Elephant -->
  <ellipse cx="200" cy="170" rx="20" ry="15" fill="#808080"/>
  <ellipse cx="200" cy="170" rx="18" ry="13" fill="#A9A9A9"/>
  <ellipse cx="200" cy="170" rx="16" ry="11" fill="#808080"/>
  <ellipse cx="195" cy="165" rx="8" ry="6" fill="#808080"/>
  <ellipse cx="205" cy="165" rx="8" ry="6" fill="#808080"/>
  <circle cx="193" cy="163" r="2" fill="#000"/>
  <circle cx="207" cy="163" r="2" fill="#000"/>
  <!-- Elephant details -->
  <ellipse cx="198" cy="168" rx="4" ry="3" fill="#A9A9A9"/>
  <ellipse cx="202" cy="168" rx="4" ry="3" fill="#A9A9A9"/>
  
  <!-- Giraffe -->
  <ellipse cx="310" cy="150" rx="12" ry="8" fill="#DEB887"/>
  <ellipse cx="310" cy="150" rx="10" ry="6" fill="#F4A460"/>
  <ellipse cx="310" cy="150" rx="8" ry="5" fill="#DEB887"/>
  <rect x="308" y="140" width="4" height="20" fill="#DEB887"/>
  <rect x="308" y="140" width="4" height="20" fill="url(#furTexture)" opacity="0.3"/>
  <ellipse cx="310" cy="135" rx="8" ry="6" fill="#DEB887"/>
  <ellipse cx="310" cy="135" rx="6" ry="4" fill="#F4A460"/>
  <circle cx="308" cy="133" r="1.5" fill="#000"/>
  <circle cx="312" cy="133" r="1.5" fill="#000"/>
  <!-- Giraffe spots -->
  <ellipse cx="305" cy="145" rx="2" ry="1" fill="#8B4513"/>
  <ellipse cx="315" cy="145" rx="2" ry="1" fill="#8B4513"/>
  <ellipse cx="310" cy="140" rx="1" ry="1" fill="#8B4513"/>
  
  <!-- Tree shadows -->
  <ellipse cx="85" cy="230" rx="15" ry="6" fill="#000000" opacity="0.2"/>
  <ellipse cx="315" cy="230" rx="15" ry="6" fill="#000000" opacity="0.2"/>
  
  <!-- Enhanced Trees -->
  <ellipse cx="80" cy="200" rx="15" ry="20" fill="#228B22"/>
  <ellipse cx="80" cy="200" rx="12" ry="18" fill="#32CD32"/>
  <ellipse cx="80" cy="200" rx="9" ry="15" fill="#3CB371"/>
  <rect x="77" y="210" width="6" height="25" fill="#8B4513"/>
  <rect x="77" y="210" width="6" height="25" fill="url(#woodTexture)" opacity="0.3"/>
  <rect x="78" y="212" width="2" height="21" fill="#A0522D"/>
  
  <ellipse cx="320" cy="200" rx="15" ry="20" fill="#228B22"/>
  <ellipse cx="320" cy="200" rx="12" ry="18" fill="#32CD32"/>
  <ellipse cx="320" cy="200" rx="9" ry="15" fill="#3CB371"/>
  <rect x="317" y="210" width="6" height="25" fill="#8B4513"/>
  <rect x="317" y="210" width="6" height="25" fill="url(#woodTexture)" opacity="0.3"/>
  <rect x="318" y="212" width="2" height="21" fill="#A0522D"/>
  
  <!-- Zoo entrance shadow -->
  <ellipse cx="200" cy="125" rx="20" ry="6" fill="#000000" opacity="0.2"/>
  
  <!-- Enhanced Zoo entrance -->
  <rect x="180" y="100" width="40" height="20" fill="#8B4513"/>
  <rect x="180" y="100" width="40" height="20" fill="url(#woodTexture)" opacity="0.3"/>
  <rect x="185" y="105" width="30" height="10" fill="#DEB887"/>
  <rect x="187" y="107" width="26" height="2" fill="#A0522D"/>
  
  <!-- Small plants around zoo -->
  <ellipse cx="40" cy="250" rx="3" ry="5" fill="#228B22"/>
  <ellipse cx="360" cy="250" rx="3" ry="5" fill="#228B22"/>
  <ellipse cx="120" cy="270" rx="3" ry="5" fill="#32CD32"/>
  <ellipse cx="280" cy="270" rx="3" ry="5" fill="#32CD32"/>
  <ellipse cx="200" cy="280" rx="3" ry="5" fill="#228B22"/>
  
  <!-- Enhanced Sun with rays -->
  <circle cx="350" cy="40" r="20" fill="#FFD700"/>
  <circle cx="350" cy="40" r="15" fill="#FFFF00"/>
  <circle cx="350" cy="40" r="10" fill="#FFD700"/>
  <line x1="350" y1="15" x2="350" y2="20" stroke="#FFD700" stroke-width="2"/>
  <line x1="350" y1="60" x2="350" y2="65" stroke="#FFD700" stroke-width="2"/>
  <line x1="325" y1="40" x2="330" y2="40" stroke="#FFD700" stroke-width="2"/>
  <line x1="370" y1="40" x2="375" y2="40" stroke="#FFD700" stroke-width="2"/>
  <line x1="332" y1="22" x2="336" y2="26" stroke="#FFD700" stroke-width="2"/>
  <line x1="364" y1="54" x2="368" y2="58" stroke="#FFD700" stroke-width="2"/>
  <line x1="364" y1="26" x2="368" y2="22" stroke="#FFD700" stroke-width="2"/>
  <line x1="332" y1="54" x2="336" y2="58" stroke="#FFD700" stroke-width="2"/>
  
  <!-- Enhanced Birds with V-shapes -->
  <path d="M 95 80 Q 100 78 105 80" stroke="#4A4A4A" stroke-width="1.5" fill="none"/>
  <path d="M 100 82 L 100 78" stroke="#4A4A4A" stroke-width="1" fill="none"/>
  
  <path d="M 295 60 Q 300 58 305 60" stroke="#4A4A4A" stroke-width="1.5" fill="none"/>
  <path d="M 300 62 L 300 58" stroke="#4A4A4A" stroke-width="1" fill="none"/>
  
  <path d="M 195 40 Q 200 38 205 40" stroke="#4A4A4A" stroke-width="1.5" fill="none"/>
  <path d="M 200 42 L 200 38" stroke="#4A4A4A" stroke-width="1" fill="none"/>
  
  <!-- Gradients and Patterns -->
  <defs>
    <linearGradient id="skyGradient" x1="0%" y1="0%" x2="0%" y2="100%">
      <stop offset="0%" style="stop-color:#87CEEB;stop-opacity:1" />
      <stop offset="100%" style="stop-color:#F0F8FF;stop-opacity:1" />
    </linearGradient>
    
    <pattern id="grassTexture" x="0" y="0" width="20" height="20" patternUnits="userSpaceOnUse">
      <line x1="0" y1="5" x2="5" y2="0" stroke="#70D070" stroke-width="0.5"/>
      <line x1="10" y1="15" x2="15" y2="10" stroke="#70D070" stroke-width="0.5"/>
      <line x1="5" y1="20" x2="10" y2="15" stroke="#70D070" stroke-width="0.5"/>
    </pattern>
    
    <pattern id="concreteTexture" x="0" y="0" width="10" height="10" patternUnits="userSpaceOnUse">
      <line x1="0" y1="5" x2="10" y2="5" stroke="#C0C0C0" stroke-width="0.3"/>
      <line x1="5" y1="0" x2="5" y2="10" stroke="#C0C0C0" stroke-width="0.3"/>
    </pattern>
    
    <pattern id="metalTexture" x="0" y="0" width="4" height="4" patternUnits="userSpaceOnUse">
      <line x1="0" y1="2" x2="4" y2="2" stroke="#A9A9A9" stroke-width="0.3"/>
      <line x1="2" y1="0" x2="2" y2="4" stroke="#A9A9A9" stroke-width="0.3"/>
    </pattern>
    
    <pattern id="furTexture" x="0" y="0" width="6" height="6" patternUnits="userSpaceOnUse">
      <line x1="0" y1="3" x2="6" y2="3" stroke="#8B4513" stroke-width="0.3"/>
      <line x1="1" y1="1" x2="5" y2="1" stroke="#8B4513" stroke-width="0.2"/>
      <line x1="1" y1="5" x2="5" y2="5" stroke="#8B4513" stroke-width="0.2"/>
    </pattern>
    
    <pattern id="woodTexture" x="0" y="0" width="8" height="8" patternUnits="userSpaceOnUse">
      <line x1="0" y1="2" x2="8" y2="2" stroke="#A0522D" stroke-width="0.3"/>
      <line x1="0" y1="6" x2="8" y2="6" stroke="#A0522D" stroke-width="0.3"/>
    </pattern>
  </defs>
</svg>
