<svg width="400" height="300" viewBox="0 0 400 300" fill="none" xmlns="http://www.w3.org/2000/svg">
  <!-- Background -->
  <rect width="400" height="300" fill="#F0F8FF"/>
  
  <!-- Sky gradient -->
  <rect x="0" y="0" width="400" height="150" fill="url(#skyGradient)"/>
  
  <!-- Enhanced Clouds -->
  <ellipse cx="60" cy="40" rx="20" ry="12" fill="#FFFFFF" opacity="0.7"/>
  <ellipse cx="75" cy="38" rx="18" ry="10" fill="#FFFFFF" opacity="0.7"/>
  <ellipse cx="48" cy="42" rx="15" ry="9" fill="#FFFFFF" opacity="0.7"/>
  
  <ellipse cx="280" cy="55" rx="25" ry="14" fill="#FFFFFF" opacity="0.6"/>
  <ellipse cx="298" cy="52" rx="20" ry="11" fill="#FFFFFF" opacity="0.6"/>
  <ellipse cx="265" cy="58" rx="18" ry="10" fill="#FFFFFF" opacity="0.6"/>
  
  <!-- Ground with texture -->
  <rect x="0" y="150" width="400" height="150" fill="#90EE90"/>
  <rect x="0" y="150" width="400" height="150" fill="url(#grassTexture)" opacity="0.3"/>
  
  <!-- Railway track shadows -->
  <ellipse cx="200" cy="220" rx="200" ry="8" fill="#000000" opacity="0.2"/>
  
  <!-- Enhanced Railway tracks -->
  <rect x="0" y="200" width="400" height="8" fill="#8B4513"/>
  <rect x="0" y="200" width="400" height="8" fill="url(#trackTexture)" opacity="0.3"/>
  <rect x="0" y="208" width="400" height="8" fill="#8B4513"/>
  <rect x="0" y="208" width="400" height="8" fill="url(#trackTexture)" opacity="0.3"/>
  
  <!-- Enhanced Track ties -->
  <rect x="50" y="195" width="8" height="20" fill="#8B4513"/>
  <rect x="50" y="195" width="8" height="20" fill="url(#woodTexture)" opacity="0.3"/>
  <rect x="100" y="195" width="8" height="20" fill="#8B4513"/>
  <rect x="100" y="195" width="8" height="20" fill="url(#woodTexture)" opacity="0.3"/>
  <rect x="150" y="195" width="8" height="20" fill="#8B4513"/>
  <rect x="150" y="195" width="8" height="20" fill="url(#woodTexture)" opacity="0.3"/>
  <rect x="200" y="195" width="8" height="20" fill="#8B4513"/>
  <rect x="200" y="195" width="8" height="20" fill="url(#woodTexture)" opacity="0.3"/>
  <rect x="250" y="195" width="8" height="20" fill="#8B4513"/>
  <rect x="250" y="195" width="8" height="20" fill="url(#woodTexture)" opacity="0.3"/>
  <rect x="300" y="195" width="8" height="20" fill="#8B4513"/>
  <rect x="300" y="195" width="8" height="20" fill="url(#woodTexture)" opacity="0.3"/>
  <rect x="350" y="195" width="8" height="20" fill="#8B4513"/>
  <rect x="350" y="195" width="8" height="20" fill="url(#woodTexture)" opacity="0.3"/>
  
  <!-- Locomotive shadow -->
  <ellipse cx="140" cy="220" rx="40" ry="8" fill="#000000" opacity="0.2"/>
  
  <!-- Enhanced Steam locomotive -->
  <rect x="100" y="140" width="80" height="50" fill="#2F4F4F"/>
  <rect x="105" y="145" width="70" height="40" fill="#708090"/>
  <rect x="110" y="150" width="60" height="30" fill="#2F4F4F"/>
  <!-- Locomotive highlights -->
  <rect x="102" y="142" width="76" height="2" fill="#708090"/>
  <rect x="107" y="147" width="66" height="2" fill="#A9A9A9"/>
  
  <!-- Enhanced Locomotive chimney -->
  <rect x="130" y="120" width="20" height="30" fill="#2F4F4F"/>
  <rect x="135" y="125" width="10" height="20" fill="#708090"/>
  <rect x="135" y="125" width="10" height="20" fill="url(#metalTexture)" opacity="0.3"/>
  <!-- Steam effect -->
  <ellipse cx="140" cy="115" rx="8" ry="4" fill="#FFFFFF" opacity="0.6"/>
  <ellipse cx="140" cy="110" rx="6" ry="3" fill="#FFFFFF" opacity="0.4"/>
  
  <!-- Enhanced Locomotive wheels -->
  <circle cx="120" cy="190" r="15" fill="#2F4F4F"/>
  <circle cx="120" cy="190" r="12" fill="#708090"/>
  <circle cx="120" cy="190" r="8" fill="#2F4F4F"/>
  <circle cx="120" cy="190" r="4" fill="#A9A9A9"/>
  
  <circle cx="160" cy="190" r="15" fill="#2F4F4F"/>
  <circle cx="160" cy="190" r="12" fill="#708090"/>
  <circle cx="160" cy="190" r="8" fill="#2F4F4F"/>
  <circle cx="160" cy="190" r="4" fill="#A9A9A9"/>
  
  <!-- Passenger car shadow -->
  <ellipse cx="230" cy="220" rx="30" ry="6" fill="#000000" opacity="0.2"/>
  
  <!-- Enhanced Passenger car -->
  <rect x="200" y="150" width="60" height="40" fill="#4682B4"/>
  <rect x="205" y="155" width="50" height="30" fill="#5F9EA0"/>
  <rect x="210" y="160" width="40" height="20" fill="#4682B4"/>
  <!-- Car highlights -->
  <rect x="202" y="152" width="56" height="2" fill="#5F9EA0"/>
  <rect x="207" y="157" width="46" height="2" fill="#87CEEB"/>
  
  <!-- Enhanced Car windows -->
  <rect x="210" y="160" width="15" height="15" fill="#87CEEB"/>
  <rect x="210" y="160" width="15" height="15" fill="url(#windowTexture)" opacity="0.3"/>
  <rect x="212" y="162" width="11" height="11" fill="#B0E0E6"/>
  
  <rect x="235" y="160" width="15" height="15" fill="#87CEEB"/>
  <rect x="235" y="160" width="15" height="15" fill="url(#windowTexture)" opacity="0.3"/>
  <rect x="237" y="162" width="11" height="11" fill="#B0E0E6"/>
  
  <!-- Enhanced Car wheels -->
  <circle cx="220" cy="190" r="12" fill="#4682B4"/>
  <circle cx="220" cy="190" r="9" fill="#5F9EA0"/>
  <circle cx="220" cy="190" r="6" fill="#4682B4"/>
  <circle cx="220" cy="190" r="3" fill="#87CEEB"/>
  
  <circle cx="240" cy="190" r="12" fill="#4682B4"/>
  <circle cx="240" cy="190" r="9" fill="#5F9EA0"/>
  <circle cx="240" cy="190" r="6" fill="#4682B4"/>
  <circle cx="240" cy="190" r="3" fill="#87CEEB"/>
  
  <!-- Museum building shadow -->
  <ellipse cx="100" cy="120" rx="50" ry="8" fill="#000000" opacity="0.2"/>
  
  <!-- Enhanced Museum building -->
  <rect x="50" y="80" width="100" height="60" fill="#DEB887"/>
  <rect x="55" y="85" width="90" height="50" fill="#F5DEB3"/>
  <rect x="60" y="90" width="80" height="40" fill="#DEB887"/>
  <!-- Building highlights -->
  <rect x="52" y="82" width="96" height="2" fill="#F5DEB3"/>
  <rect x="57" y="87" width="86" height="2" fill="#FFFFE0"/>
  
  <!-- Enhanced Museum roof -->
  <rect x="45" y="70" width="110" height="15" fill="#8B4513"/>
  <rect x="45" y="70" width="110" height="15" fill="url(#roofTexture)" opacity="0.3"/>
  <rect x="47" y="72" width="106" height="2" fill="#A0522D"/>
  
  <!-- Museum entrance shadow -->
  <ellipse cx="100" cy="140" rx="20" ry="6" fill="#000000" opacity="0.2"/>
  
  <!-- Enhanced Museum entrance -->
  <rect x="80" y="120" width="40" height="20" fill="#8B4513"/>
  <rect x="85" y="125" width="30" height="10" fill="#DEB887"/>
  <rect x="85" y="125" width="30" height="10" fill="url(#woodTexture)" opacity="0.3"/>
  <rect x="87" y="127" width="26" height="2" fill="#A0522D"/>
  
  <!-- Enhanced Museum windows -->
  <rect x="65" y="95" width="15" height="20" fill="#87CEEB"/>
  <rect x="65" y="95" width="15" height="20" fill="url(#windowTexture)" opacity="0.3"/>
  <rect x="67" y="97" width="11" height="16" fill="#B0E0E6"/>
  
  <rect x="90" y="95" width="15" height="20" fill="#87CEEB"/>
  <rect x="90" y="95" width="15" height="20" fill="url(#windowTexture)" opacity="0.3"/>
  <rect x="92" y="97" width="11" height="16" fill="#B0E0E6"/>
  
  <rect x="115" y="95" width="15" height="20" fill="#87CEEB"/>
  <rect x="115" y="95" width="15" height="20" fill="url(#windowTexture)" opacity="0.3"/>
  <rect x="117" y="97" width="11" height="16" fill="#B0E0E6"/>
  
  <!-- Signal post shadow -->
  <ellipse cx="354" cy="200" rx="4" ry="6" fill="#000000" opacity="0.2"/>
  
  <!-- Enhanced Signal post -->
  <rect x="350" y="150" width="8" height="50" fill="#8B4513"/>
  <rect x="350" y="150" width="8" height="50" fill="url(#woodTexture)" opacity="0.3"/>
  <rect x="345" y="150" width="18" height="8" fill="#FF0000"/>
  <rect x="345" y="150" width="18" height="8" fill="url(#lightTexture)" opacity="0.3"/>
  <rect x="347" y="152" width="14" height="2" fill="#FF6666"/>
  
  <!-- Tree shadows -->
  <ellipse cx="85" cy="240" rx="15" ry="6" fill="#000000" opacity="0.2"/>
  <ellipse cx="315" cy="240" rx="15" ry="6" fill="#000000" opacity="0.2"/>
  
  <!-- Enhanced Trees -->
  <ellipse cx="80" cy="220" rx="15" ry="20" fill="#228B22"/>
  <ellipse cx="80" cy="220" rx="12" ry="18" fill="#32CD32"/>
  <ellipse cx="80" cy="220" rx="9" ry="15" fill="#3CB371"/>
  <rect x="77" y="230" width="6" height="25" fill="#8B4513"/>
  <rect x="78" y="230" width="2" height="25" fill="#A0522D"/>
  
  <ellipse cx="320" cy="220" rx="15" ry="20" fill="#228B22"/>
  <ellipse cx="320" cy="220" rx="12" ry="18" fill="#32CD32"/>
  <ellipse cx="320" cy="220" rx="9" ry="15" fill="#3CB371"/>
  <rect x="317" y="230" width="6" height="25" fill="#8B4513"/>
  <rect x="318" y="230" width="2" height="25" fill="#A0522D"/>
  
  <!-- Small plants around tracks -->
  <ellipse cx="30" cy="250" rx="3" ry="5" fill="#228B22"/>
  <ellipse cx="370" cy="250" rx="3" ry="5" fill="#228B22"/>
  <ellipse cx="120" cy="270" rx="3" ry="5" fill="#228B22"/>
  <ellipse cx="280" cy="270" rx="3" ry="5" fill="#228B22"/>
  
  <!-- Enhanced Sun with rays -->
  <circle cx="350" cy="40" r="20" fill="#FFD700"/>
  <circle cx="350" cy="40" r="15" fill="#FFFF00"/>
  <circle cx="350" cy="40" r="10" fill="#FFD700"/>
  <line x1="350" y1="15" x2="350" y2="20" stroke="#FFD700" stroke-width="2"/>
  <line x1="350" y1="60" x2="350" y2="65" stroke="#FFD700" stroke-width="2"/>
  <line x1="325" y1="40" x2="330" y2="40" stroke="#FFD700" stroke-width="2"/>
  <line x1="370" y1="40" x2="375" y2="40" stroke="#FFD700" stroke-width="2"/>
  <line x1="332" y1="22" x2="336" y2="26" stroke="#FFD700" stroke-width="2"/>
  <line x1="364" y1="54" x2="368" y2="58" stroke="#FFD700" stroke-width="2"/>
  <line x1="364" y1="26" x2="368" y2="22" stroke="#FFD700" stroke-width="2"/>
  <line x1="332" y1="54" x2="336" y2="58" stroke="#FFD700" stroke-width="2"/>
  
  <!-- Enhanced Birds with V-shapes -->
  <path d="M 95 80 Q 100 78 105 80" stroke="#4A4A4A" stroke-width="1.5" fill="none"/>
  <path d="M 100 82 L 100 78" stroke="#4A4A4A" stroke-width="1" fill="none"/>
  
  <path d="M 295 60 Q 300 58 305 60" stroke="#4A4A4A" stroke-width="1.5" fill="none"/>
  <path d="M 300 62 L 300 58" stroke="#4A4A4A" stroke-width="1" fill="none"/>
  
  <path d="M 195 40 Q 200 38 205 40" stroke="#4A4A4A" stroke-width="1.5" fill="none"/>
  <path d="M 200 42 L 200 38" stroke="#4A4A4A" stroke-width="1" fill="none"/>
  
  <!-- Gradients and Patterns -->
  <defs>
    <linearGradient id="skyGradient" x1="0%" y1="0%" x2="0%" y2="100%">
      <stop offset="0%" style="stop-color:#87CEEB;stop-opacity:1" />
      <stop offset="100%" style="stop-color:#F0F8FF;stop-opacity:1" />
    </linearGradient>
    
    <pattern id="grassTexture" x="0" y="0" width="20" height="20" patternUnits="userSpaceOnUse">
      <line x1="0" y1="5" x2="5" y2="0" stroke="#70D070" stroke-width="0.5"/>
      <line x1="10" y1="15" x2="15" y2="10" stroke="#70D070" stroke-width="0.5"/>
      <line x1="5" y1="20" x2="10" y2="15" stroke="#70D070" stroke-width="0.5"/>
    </pattern>
    
    <pattern id="trackTexture" x="0" y="0" width="8" height="8" patternUnits="userSpaceOnUse">
      <line x1="0" y1="4" x2="8" y2="4" stroke="#A0522D" stroke-width="0.5"/>
      <line x1="2" y1="2" x2="6" y2="2" stroke="#8B4513" stroke-width="0.3"/>
      <line x1="2" y1="6" x2="6" y2="6" stroke="#8B4513" stroke-width="0.3"/>
    </pattern>
    
    <pattern id="woodTexture" x="0" y="0" width="8" height="8" patternUnits="userSpaceOnUse">
      <line x1="0" y1="2" x2="8" y2="2" stroke="#A0522D" stroke-width="0.3"/>
      <line x1="0" y1="6" x2="8" y2="6" stroke="#A0522D" stroke-width="0.3"/>
    </pattern>
    
    <pattern id="metalTexture" x="0" y="0" width="6" height="6" patternUnits="userSpaceOnUse">
      <line x1="0" y1="3" x2="6" y2="3" stroke="#A9A9A9" stroke-width="0.3"/>
      <line x1="3" y1="0" x2="3" y2="6" stroke="#A9A9A9" stroke-width="0.3"/>
    </pattern>
    
    <pattern id="windowTexture" x="0" y="0" width="6" height="6" patternUnits="userSpaceOnUse">
      <line x1="0" y1="3" x2="6" y2="3" stroke="#4682B4" stroke-width="0.3"/>
      <line x1="3" y1="0" x2="3" y2="6" stroke="#4682B4" stroke-width="0.3"/>
    </pattern>
    
    <pattern id="roofTexture" x="0" y="0" width="10" height="10" patternUnits="userSpaceOnUse">
      <line x1="0" y1="5" x2="10" y2="5" stroke="#A0522D" stroke-width="0.5"/>
      <line x1="5" y1="0" x2="5" y2="10" stroke="#A0522D" stroke-width="0.5"/>
    </pattern>
    
    <pattern id="lightTexture" x="0" y="0" width="4" height="4" patternUnits="userSpaceOnUse">
      <circle cx="2" cy="2" r="1" fill="#FF6666" opacity="0.5"/>
    </pattern>
  </defs>
</svg>
