<svg width="400" height="300" viewBox="0 0 400 300" fill="none" xmlns="http://www.w3.org/2000/svg">
  <!-- Background -->
  <rect width="400" height="300" fill="#F0F8FF"/>
  
  <!-- Sky -->
  <rect x="0" y="0" width="400" height="150" fill="#87CEEB"/>
  
  <!-- Ground -->
  <rect x="0" y="150" width="400" height="150" fill="#90EE90"/>
  
  <!-- Zoo enclosures -->
  <rect x="50" y="120" width="80" height="60" fill="#DEB887"/>
  <rect x="55" y="125" width="70" height="50" fill="#F5DEB3"/>
  
  <rect x="150" y="130" width="80" height="60" fill="#DEB887"/>
  <rect x="155" y="135" width="70" height="50" fill="#F5DEB3"/>
  
  <rect x="250" y="125" width="80" height="60" fill="#DEB887"/>
  <rect x="255" y="130" width="70" height="50" fill="#F5DEB3"/>
  
  <!-- Enclosure bars -->
  <rect x="60" y="125" width="2" height="50" fill="#8B4513"/>
  <rect x="70" y="125" width="2" height="50" fill="#8B4513"/>
  <rect x="80" y="125" width="2" height="50" fill="#8B4513"/>
  <rect x="90" y="125" width="2" height="50" fill="#8B4513"/>
  <rect x="100" y="125" width="2" height="50" fill="#8B4513"/>
  <rect x="110" y="125" width="2" height="50" fill="#8B4513"/>
  <rect x="120" y="125" width="2" height="50" fill="#8B4513"/>
  
  <rect x="160" y="135" width="2" height="50" fill="#8B4513"/>
  <rect x="170" y="135" width="2" height="50" fill="#8B4513"/>
  <rect x="180" y="135" width="2" height="50" fill="#8B4513"/>
  <rect x="190" y="135" width="2" height="50" fill="#8B4513"/>
  <rect x="200" y="135" width="2" height="50" fill="#8B4513"/>
  <rect x="210" y="135" width="2" height="50" fill="#8B4513"/>
  <rect x="220" y="135" width="2" height="50" fill="#8B4513"/>
  
  <rect x="260" y="130" width="2" height="50" fill="#8B4513"/>
  <rect x="270" y="130" width="2" height="50" fill="#8B4513"/>
  <rect x="280" y="130" width="2" height="50" fill="#8B4513"/>
  <rect x="290" y="130" width="2" height="50" fill="#8B4513"/>
  <rect x="300" y="130" width="2" height="50" fill="#8B4513"/>
  <rect x="310" y="130" width="2" height="50" fill="#8B4513"/>
  <rect x="320" y="130" width="2" height="50" fill="#8B4513"/>
  
  <!-- Animals -->
  <!-- Lion -->
  <ellipse cx="90" cy="160" rx="15" ry="10" fill="#FFA500"/>
  <ellipse cx="90" cy="160" rx="12" ry="8" fill="#FF8C00"/>
  <ellipse cx="85" cy="155" rx="6" ry="4" fill="#FFA500"/>
  <ellipse cx="95" cy="155" rx="6" ry="4" fill="#FFA500"/>
  <circle cx="83" cy="153" r="1.5" fill="#000"/>
  <circle cx="97" cy="153" r="1.5" fill="#000"/>
  
  <!-- Elephant -->
  <ellipse cx="200" cy="170" rx="20" ry="15" fill="#808080"/>
  <ellipse cx="200" cy="170" rx="18" ry="13" fill="#A9A9A9"/>
  <ellipse cx="195" cy="165" rx="8" ry="6" fill="#808080"/>
  <ellipse cx="205" cy="165" rx="8" ry="6" fill="#808080"/>
  <circle cx="193" cy="163" r="2" fill="#000"/>
  <circle cx="207" cy="163" r="2" fill="#000"/>
  
  <!-- Giraffe -->
  <ellipse cx="310" cy="150" rx="12" ry="8" fill="#DEB887"/>
  <ellipse cx="310" cy="150" rx="10" ry="6" fill="#F4A460"/>
  <rect x="308" y="140" width="4" height="20" fill="#DEB887"/>
  <ellipse cx="310" cy="135" rx="8" ry="6" fill="#DEB887"/>
  <circle cx="308" cy="133" r="1.5" fill="#000"/>
  <circle cx="312" cy="133" r="1.5" fill="#000"/>
  
  <!-- Trees -->
  <ellipse cx="80" cy="200" rx="15" ry="20" fill="#228B22"/>
  <ellipse cx="80" cy="200" rx="12" ry="18" fill="#32CD32"/>
  <rect x="77" y="210" width="6" height="25" fill="#8B4513"/>
  
  <ellipse cx="320" cy="200" rx="15" ry="20" fill="#228B22"/>
  <ellipse cx="320" cy="200" rx="12" ry="18" fill="#32CD32"/>
  <rect x="317" y="210" width="6" height="25" fill="#8B4513"/>
  
  <!-- Zoo entrance -->
  <rect x="180" y="100" width="40" height="20" fill="#8B4513"/>
  <rect x="185" y="105" width="30" height="10" fill="#DEB887"/>
  
  <!-- Sun -->
  <circle cx="350" cy="40" r="20" fill="#FFD700"/>
  <circle cx="350" cy="40" r="15" fill="#FFFF00"/>
  
  <!-- Birds -->
  <ellipse cx="100" cy="80" rx="5" ry="3" fill="#87CEEB"/>
  <ellipse cx="300" cy="60" rx="5" ry="3" fill="#87CEEB"/>
  <ellipse cx="200" cy="40" rx="5" ry="3" fill="#87CEEB"/>
</svg>
