<svg width="400" height="300" viewBox="0 0 400 300" fill="none" xmlns="http://www.w3.org/2000/svg">
  <!-- Background -->
  <rect width="400" height="300" fill="#E0F6FF"/>
  
  <!-- Sky -->
  <rect x="0" y="0" width="400" height="150" fill="#87CEEB"/>
  
  <!-- Water -->
  <ellipse cx="200" cy="200" rx="150" ry="80" fill="#4682B4"/>
  <ellipse cx="200" cy="200" rx="130" ry="70" fill="#5F9EA0"/>
  <ellipse cx="200" cy="200" rx="110" ry="60" fill="#87CEEB"/>
  
  <!-- Water ripples -->
  <ellipse cx="200" cy="200" rx="90" ry="50" fill="#B0E0E6"/>
  <ellipse cx="200" cy="200" rx="70" ry="40" fill="#E0F6FF"/>
  
  <!-- Islands -->
  <ellipse cx="150" cy="180" rx="25" ry="15" fill="#90EE90"/>
  <ellipse cx="150" cy="180" rx="20" ry="12" fill="#98FB98"/>
  
  <ellipse cx="250" cy="190" rx="25" ry="15" fill="#90EE90"/>
  <ellipse cx="250" cy="190" rx="20" ry="12" fill="#98FB98"/>
  
  <ellipse cx="200" cy="160" rx="20" ry="12" fill="#90EE90"/>
  <ellipse cx="200" cy="160" rx="15" ry="10" fill="#98FB98"/>
  
  <!-- Birds -->
  <!-- Flamingo -->
  <ellipse cx="140" cy="170" rx="12" ry="8" fill="#FF69B4"/>
  <ellipse cx="140" cy="170" rx="10" ry="6" fill="#FF1493"/>
  <rect x="138" y="160" width="4" height="20" fill="#FF69B4"/>
  <ellipse cx="140" cy="155" rx="8" ry="6" fill="#FF69B4"/>
  
  <!-- Pelican -->
  <ellipse cx="260" cy="180" rx="15" ry="10" fill="#87CEEB"/>
  <ellipse cx="260" cy="180" rx="12" ry="8" fill="#B0E0E6"/>
  <ellipse cx="260" cy="175" rx="10" ry="8" fill="#87CEEB"/>
  <ellipse cx="260" cy="170" rx="8" ry="6" fill="#87CEEB"/>
  
  <!-- Heron -->
  <ellipse cx="190" cy="150" rx="10" ry="6" fill="#F5F5DC"/>
  <ellipse cx="190" cy="150" rx="8" ry="5" fill="#F0E68C"/>
  <rect x="188" y="140" width="4" height="20" fill="#F5F5DC"/>
  <ellipse cx="190" cy="135" rx="6" ry="4" fill="#F5F5DC"/>
  
  <!-- Flying birds -->
  <ellipse cx="80" cy="80" rx="6" ry="4" fill="#87CEEB"/>
  <ellipse cx="320" cy="60" rx="6" ry="4" fill="#87CEEB"/>
  <ellipse cx="200" cy="40" rx="6" ry="4" fill="#87CEEB"/>
  <ellipse cx="100" cy="70" rx="6" ry="4" fill="#87CEEB"/>
  <ellipse cx="300" cy="50" rx="6" ry="4" fill="#87CEEB"/>
  
  <!-- Trees on islands -->
  <ellipse cx="150" cy="170" rx="12" ry="15" fill="#228B22"/>
  <ellipse cx="150" cy="170" rx="10" ry="13" fill="#32CD32"/>
  <rect x="147" y="175" width="6" height="20" fill="#8B4513"/>
  
  <ellipse cx="250" cy="180" rx="12" ry="15" fill="#228B22"/>
  <ellipse cx="250" cy="180" rx="10" ry="13" fill="#32CD32"/>
  <rect x="247" y="185" width="6" height="20" fill="#8B4513"/>
  
  <!-- Sun -->
  <circle cx="350" cy="40" r="20" fill="#FFD700"/>
  <circle cx="350" cy="40" r="15" fill="#FFFF00"/>
  
  <!-- Clouds -->
  <ellipse cx="80" cy="30" rx="15" ry="8" fill="white"/>
  <ellipse cx="95" cy="30" rx="12" ry="6" fill="white"/>
  <ellipse cx="110" cy="30" rx="15" ry="8" fill="white"/>
  
  <ellipse cx="280" cy="20" rx="18" ry="10" fill="white"/>
  <ellipse cx="300" cy="20" rx="15" ry="8" fill="white"/>
  <ellipse cx="320" cy="20" rx="18" ry="10" fill="white"/>
</svg>
